<?xml version="1.0" encoding="utf-8"?>
<!-- Generator: Adobe Illustrator 25.2.1, SVG Export Plug-In . SVG Version: 6.00 Build 0)  -->
<svg version="1.1" id="Capa_1" xmlns="http://www.w3.org/2000/svg" xmlns:xlink="http://www.w3.org/1999/xlink" x="0px" y="0px"
	 viewBox="0 0 2700 2000" style="enable-background:new 0 0 2700 2000;" xml:space="preserve">
<g id="Capa_1_1_">
</g>
<g id="Capa_2_1_">
	<g>
		<path d="M2473.08,1680.95v0.02h-62.93v-3.48c0-2.27-1.19-4.36-3.13-5.56c1.75-0.94,2.85-2.76,2.85-4.77v-3.52
			c0-2.98-2.43-5.41-5.41-5.41h-5.87v-29.55h5.87c2.98,0,5.41-2.43,5.41-5.41v-3.52c0-2.98-2.43-5.41-5.41-5.41h-60.31
			c1.03-0.99,1.62-2.35,1.62-3.78v-2.96c0-2.89-2.35-5.25-5.25-5.25h-4.79v-23.47h4.79c2.89,0,5.25-2.35,5.25-5.25v-2.96
			c0-2.89-2.35-5.25-5.25-5.25h-15.8c3.27-2.04,5.43-5.57,5.7-9.42l13.04-186.02c0.24-3.38-0.91-6.61-3.22-9.08
			c-2.31-2.48-5.45-3.84-8.84-3.84h-168.46c-7.01,0-12.89,5.48-13.38,12.48l-12.85,183.36c-0.26,3.75,1.01,7.34,3.57,10.09
			c0.9,0.96,1.93,1.78,3.07,2.45h-57.03c-2.89,0-5.25,2.35-5.25,5.25v2.96c0,2.89,2.35,5.25,5.25,5.25h4.79v23.47h-4.79
			c-2.89,0-5.25,2.35-5.25,5.25v2.96c0,2.89,2.35,5.25,5.25,5.25h12.25c-1.09,1.02-1.72,2.44-1.72,3.94v3.52
			c0,2.98,2.43,5.41,5.41,5.41h5.87v29.55h-5.87c-2.98,0-5.41,2.43-5.41,5.41v3.52c0,1.41,0.56,2.75,1.55,3.76h-26.86
			c-3.63,0-6.58,2.95-6.58,6.57v3.48h-57.13v-185.23c4.38,3.47,9.83,5.38,15.41,5.38c13.7,0,24.84-11.14,24.84-24.84
			c0-3.87-0.92-7.73-2.67-11.19c9.53-3.67,15.91-12.94,15.91-23.17c0-5.24-1.63-10.26-4.72-14.52c3.13-8.06,4.72-16.54,4.72-25.2
			c0-14.08-4.17-27.63-12.05-39.22c5.34-0.91,27.08-5.9,30.86-27.2c4.59-25.87-17.89-41.61-23.31-45c7.02-5.2,37.18-30.2,26-67.84
			c-4.37-14.7-12.32-24.6-23.61-29.4c-5.18-2.2-11.1-3.31-17.62-3.31c-14.64,0-28.58,5.66-33.29,7.78
			c2.56-7.74,9.12-31.42,0.09-48.27c-4.6-8.59-12.57-14.18-23.68-16.63c-2.81-0.62-5.63-0.93-8.39-0.93
			c-23.09,0-37.91,21.39-42.41,28.94c-1.88-11.05-11.27-58.16-36.95-77.34c-7.5-5.61-15.85-8.45-24.81-8.45
			c-2.25,0-4.58,0.18-6.91,0.54c-9.93,1.53-17.69,6.54-23.05,14.9c-3.67,5.71-6.25,13.12-7.68,22.02c-0.89-0.76-2.58-1.72-5.44-1.72
			c-1.44,0-3.04,0.24-4.76,0.72c-6.85,1.9-10.86,9.22-12.11,11.87c-2.55-1.91-10.44-7.15-20.27-7.15c-3.88,0-7.68,0.82-11.29,2.43
			c-14.49,6.48-13.27,25.77-12.39,32.37c-7.15-4.19-29.84-16.37-51.45-16.37c-11.79,0-21.33,3.7-28.33,11.01
			c-13.27,13.84-18.91,28.48-16.77,43.51c3.89,27.33,32.67,48.37,42.68,54.91c-0.66-0.02-1.34-0.03-2.01-0.03
			c-9.4,0-26.24,2-33.41,15.41c-10.18,19.05,4,31.55,7.45,34.21c-4.38,7.41-7.46,15.4-9.18,23.79v-18.22h-0.39l-124.4-216.93v-0.67
			h-358.91v45.8h0.38l109.74,195.64h-38.22v27.66h-3v30h-12.62l-2.72-57.92l-0.06-0.27c-6.21-14.69-15.08-27.81-26.39-39.04
			c-11.23-11.15-24.32-19.9-38.89-26V793.9c29.48-1.18,57.69-8.55,83.85-21.91c0.18,0.67,0.63,1.21,1.23,1.51
			c-0.78,0.39-1.32,1.19-1.32,2.12c0,0.93,0.54,1.73,1.32,2.12c-0.78,0.39-1.32,1.19-1.32,2.12c0,0.93,0.54,1.73,1.32,2.12
			c-0.78,0.39-1.32,1.19-1.32,2.12c0,0.93,0.54,1.73,1.32,2.12c-0.78,0.39-1.32,1.19-1.32,2.12c0,0.93,0.54,1.73,1.32,2.12
			c-0.78,0.39-1.32,1.19-1.32,2.12c0,0.93,0.54,1.73,1.32,2.12c-0.78,0.39-1.32,1.19-1.32,2.12c0,0.93,0.54,1.73,1.32,2.12
			c-0.78,0.39-1.32,1.19-1.32,2.12c0,0.93,0.54,1.73,1.32,2.12c-0.78,0.39-1.32,1.19-1.32,2.12c0,0.93,0.54,1.73,1.32,2.12
			c-0.78,0.39-1.32,1.19-1.32,2.12c0,0.93,0.54,1.73,1.32,2.12c-0.78,0.39-1.32,1.19-1.32,2.12c0,0.93,0.54,1.73,1.32,2.12
			c-0.78,0.39-1.32,1.19-1.32,2.12c0,0.93,0.54,1.73,1.32,2.12c-0.78,0.39-1.32,1.19-1.32,2.12c0,0.93,0.54,1.73,1.32,2.12
			c-0.78,0.39-1.32,1.19-1.32,2.12c0,0.93,0.54,1.73,1.32,2.12c-0.78,0.39-1.32,1.19-1.32,2.12c0,0.93,0.54,1.73,1.32,2.12
			c-0.78,0.39-1.32,1.19-1.32,2.12c0,0.93,0.54,1.73,1.32,2.12c-0.78,0.39-1.32,1.19-1.32,2.12c0,0.93,0.54,1.73,1.32,2.12
			c-0.78,0.39-1.32,1.19-1.32,2.12c0,0.93,0.54,1.73,1.32,2.12c-0.78,0.39-1.32,1.19-1.32,2.12c0,0.93,0.54,1.73,1.32,2.12
			c-0.78,0.39-1.32,1.19-1.32,2.12c0,0.93,0.54,1.73,1.32,2.12c-0.78,0.39-1.32,1.19-1.32,2.12c0,0.93,0.54,1.73,1.32,2.12
			c-0.78,0.39-1.32,1.19-1.32,2.12c0,0.93,0.54,1.73,1.32,2.12c-0.78,0.39-1.32,1.19-1.32,2.12c0,0.93,0.54,1.73,1.32,2.12
			c-0.78,0.39-1.32,1.19-1.32,2.12c0,0.93,0.54,1.73,1.32,2.12c-0.78,0.39-1.32,1.19-1.32,2.12c0,0.93,0.54,1.73,1.32,2.12
			c-0.78,0.39-1.32,1.19-1.32,2.12c0,0.93,0.54,1.73,1.32,2.12c-0.78,0.39-1.32,1.19-1.32,2.12c0,0.93,0.54,1.73,1.32,2.12
			c-0.78,0.39-1.32,1.19-1.32,2.12c0,0.93,0.54,1.73,1.32,2.12c-0.78,0.39-1.32,1.19-1.32,2.12c0,0.93,0.54,1.73,1.32,2.12
			c-0.78,0.39-1.32,1.19-1.32,2.12c0,0.93,0.54,1.73,1.32,2.12c-0.78,0.39-1.32,1.19-1.32,2.12c0,0.93,0.54,1.73,1.32,2.12
			c-0.78,0.39-1.32,1.19-1.32,2.12c0,0.93,0.54,1.73,1.32,2.12c-0.78,0.39-1.32,1.19-1.32,2.12c0,0.49,0.16,0.97,0.44,1.37
			c-6.73,0.95-11.75,6.69-11.75,13.55v76.9c0,7.55,6.14,13.68,13.68,13.68c7.55,0,13.68-6.14,13.68-13.68v-76.9
			c0-6.86-5.02-12.59-11.75-13.55c0.29-0.4,0.44-0.88,0.44-1.37c0-0.93-0.54-1.73-1.32-2.12c0.78-0.39,1.32-1.19,1.32-2.12
			c0-0.93-0.54-1.73-1.32-2.12c0.78-0.39,1.32-1.19,1.32-2.12c0-0.93-0.54-1.73-1.32-2.12c0.78-0.39,1.32-1.19,1.32-2.12
			c0-0.93-0.54-1.73-1.32-2.12c0.78-0.39,1.32-1.19,1.32-2.12c0-0.93-0.54-1.73-1.32-2.12c0.78-0.39,1.32-1.19,1.32-2.12
			c0-0.93-0.54-1.73-1.32-2.12c0.78-0.39,1.32-1.19,1.32-2.12c0-0.93-0.54-1.73-1.32-2.12c0.78-0.39,1.32-1.19,1.32-2.12
			c0-0.93-0.54-1.73-1.32-2.12c0.78-0.39,1.32-1.19,1.32-2.12c0-0.93-0.54-1.73-1.32-2.12c0.78-0.39,1.32-1.19,1.32-2.12
			c0-0.93-0.54-1.73-1.32-2.12c0.78-0.39,1.32-1.19,1.32-2.12c0-0.93-0.54-1.73-1.32-2.12c0.78-0.39,1.32-1.19,1.32-2.12
			c0-0.93-0.54-1.73-1.32-2.12c0.78-0.39,1.32-1.19,1.32-2.12c0-0.93-0.54-1.73-1.32-2.12c0.78-0.39,1.32-1.19,1.32-2.12
			c0-0.93-0.54-1.73-1.32-2.12c0.78-0.39,1.32-1.19,1.32-2.12c0-0.93-0.54-1.73-1.32-2.12c0.78-0.39,1.32-1.19,1.32-2.12
			c0-0.93-0.54-1.73-1.32-2.12c0.78-0.39,1.32-1.19,1.32-2.12c0-0.93-0.54-1.73-1.32-2.12c0.78-0.39,1.32-1.19,1.32-2.12
			c0-0.93-0.54-1.73-1.32-2.12c0.78-0.39,1.32-1.19,1.32-2.12c0-0.93-0.54-1.73-1.32-2.12c0.78-0.39,1.32-1.19,1.32-2.12
			c0-0.93-0.54-1.73-1.32-2.12c0.78-0.39,1.32-1.19,1.32-2.12c0-0.93-0.54-1.73-1.32-2.12c0.78-0.39,1.32-1.19,1.32-2.12
			c0-0.93-0.54-1.73-1.32-2.12c0.78-0.39,1.32-1.19,1.32-2.12c0-0.93-0.54-1.73-1.32-2.12c0.78-0.39,1.32-1.19,1.32-2.12
			c0-0.93-0.54-1.73-1.32-2.12c0.78-0.39,1.32-1.19,1.32-2.12c0-0.93-0.54-1.73-1.32-2.12c0.78-0.39,1.32-1.19,1.32-2.12
			c0-0.93-0.54-1.73-1.32-2.12c0.78-0.39,1.32-1.19,1.32-2.12c0-0.93-0.54-1.73-1.32-2.12c0.78-0.39,1.32-1.19,1.32-2.12
			c0-0.93-0.54-1.73-1.32-2.12c0.78-0.39,1.32-1.19,1.32-2.12c0-0.93-0.54-1.73-1.32-2.12c0.78-0.39,1.32-1.19,1.32-2.12
			c0-0.93-0.54-1.73-1.32-2.12c0.78-0.39,1.32-1.19,1.32-2.12c0-0.93-0.54-1.73-1.32-2.12c0.78-0.39,1.32-1.19,1.32-2.12
			c0-0.93-0.54-1.73-1.32-2.12c0.78-0.39,1.32-1.19,1.32-2.12c0-0.57-0.21-1.11-0.58-1.54c66.02-35.62,107.02-104.16,107.02-178.95
			v-0.91h-45.43l152.75-351.56l0.1-0.24l-0.24-0.1l-1.2-0.52l-0.24-0.1l-0.1,0.24l-153.06,352.29h-311.58l-138.68-319.3v-33.55
			H226.66v518.17h247c-3.43,2.93-6.72,6.09-9.8,9.39l-0.05-0.04l-0.17,0.18c-0.3,0.33-30.75,33.51-54.44,80.81H402V861
			c-2.52,5.78-4.84,11.57-6.87,17.2c-14.82,40.97-10.7,58.96-4.64,66.85c3.66,4.76,8.24,6.28,11.52,6.71v310.89
			c-5.31,3.12-10.24,6.14-14.64,8.97c-27.76,17.83-35.4,50.63-28.6,73.82c5.92,20.17,22.07,32.39,43.24,32.73v302.82H227.32v1.83
			H402v79.81h84.66v-79.81h285.16v79.81h84.66v-79.81h209.18v69.91c-3.24,2.68-6.4,5.48-9.37,8.33l-1.17,1.12l-0.46,0.44h95.67
			v-44.75c0.38-0.05,0.79-0.11,1.17-0.16l0.28,44.65v0.26h0.26l222.89-0.4h0.82l0.02-0.23l0.06-0.59
			c0.01-0.16,1.35-16.15-9.45-30.51l3.24-9.26l96.55,35.58v5.41h14.68l0.46,0.17l0.24,0.09l0.09-0.24l0.01-0.02h140.76v-46.33H1734
			v46.33h273.85v-79.81h57.13v2.15c0,3.63,2.95,6.58,6.58,6.58h6.54V1742h-6.54c-3.63,0-6.58,2.95-6.58,6.57v7.45
			c0,3.63,2.95,6.58,6.58,6.58h332.03c3.62,0,6.57-2.95,6.57-6.58v-7.45c0-3.63-2.95-6.57-6.57-6.57h-6.54v-50.49h6.54
			c3.62,0,6.57-2.95,6.57-6.58v-2.15h63.19v-1.83H2473.08z M1065.63,1760.77h-6.46c2-1.85,4.17-3.76,6.46-5.69V1760.77z
			 M1843.69,1091.75c5.07-7.9,12.41-12.64,21.8-14.09c2.23-0.34,4.46-0.52,6.62-0.52c8.57,0,16.55,2.72,23.73,8.08
			c28.56,21.34,36.57,78.16,36.65,78.73l0.28,2.09l0.11,0.82l0.37-0.74l0.95-1.88c0.15-0.3,15.48-30.25,42.11-30.25
			c2.63,0,5.31,0.3,7.98,0.89c10.57,2.33,18.13,7.61,22.47,15.7c10.33,19.22-0.76,48.56-0.87,48.85l-0.62,1.61l-0.25,0.63l0.6-0.31
			l1.53-0.79c0.16-0.09,16.6-8.53,34.42-8.53c6.27,0,11.97,1.07,16.93,3.18c10.77,4.58,18.37,14.08,22.58,28.24
			c12.08,40.63-26.03,66.38-26.41,66.64l-0.91,0.6l-0.36,0.24l0.38,0.2l0.96,0.52c0.29,0.16,28.56,15.89,23.61,43.81
			c-3.79,21.37-26.89,25.38-30.22,25.85c-8.47-11.69-20.18-20.34-33.9-25.03c2.52-5.88,3.8-12.12,3.8-18.54
			c0-25.98-21.13-47.11-47.11-47.11c-10.17,0-20.18,3.36-28.31,9.47c1.7-4.78,2.55-9.79,2.55-14.92c0-24.7-20.09-44.79-44.8-44.79
			c-11.83,0-23,4.59-31.44,12.92c-8.27,8.16-12.99,18.98-13.33,30.53c-6.34-7.41-15.51-11.65-25.26-11.65
			c-12.86,0-24.63,7.49-30.09,19.11c-13.59-10.26-29.77-15.68-46.82-15.68c-3.57,0-7.23,0.26-10.89,0.77
			c-2.13-4.51-16.42-37.87,10.27-69.19c8.01-9.39,19.28-14.16,33.5-14.16c26.76,0,55.25,17.09,55.53,17.27l1.43,0.87l0.56,0.34
			l-0.18-0.63l-0.46-1.61C1842.99,1188.62,1824.33,1121.9,1843.69,1091.75z M1680.56,1260.63c6.72-12.58,22.77-14.46,31.73-14.46
			c3.32,0,5.49,0.27,5.51,0.27l3.22,0.41l1.27,0.16l-1.11-0.64l-2.81-1.63c-0.4-0.23-40.32-23.62-44.87-55.53
			c-2.06-14.45,3.42-28.58,16.29-42c6.66-6.95,15.77-10.47,27.06-10.47c24.75,0,51.86,16.96,52.13,17.13l1.3,0.83l0.51,0.33
			l-0.12-0.59l-0.31-1.51c-0.05-0.25-5-25.14,11.03-32.31c3.37-1.51,6.93-2.27,10.56-2.27c11.38,0,19.93,7.39,20.02,7.46l0.7,0.61
			l0.27,0.24l0.13-0.34l0.34-0.86c0.04-0.1,3.89-9.81,11.39-11.9c1.58-0.44,3.02-0.66,4.29-0.66c3.67,0,4.74,1.81,4.78,1.88
			l0.12,0.22l0.22-0.12c-3.94,28.72,4.53,64.44,6.68,72.79c-7.55-4.23-31.34-16.41-54.61-16.41c-14.76,0-26.49,4.97-34.85,14.78
			c-11.4,13.37-16.91,28.61-16.4,45.3c0.39,12.65,4.25,22.27,5.64,25.36c-22.03,3.65-41.44,16.65-53.32,35.72
			C1684.07,1289.85,1671.16,1278.21,1680.56,1260.63z M1678.08,1352.86c2.65,10.29,7.29,19.76,13.8,28.17h-79.26v-28.17H1678.08z
			 M1522.69,1332.82c-2.3,0-4.18,1.87-4.18,4.18v6.03h-21.65v-19.65h-176.73v-22.01h330.44l23.89,41.66h-147.59V1337
			C1526.87,1334.7,1525,1332.82,1522.69,1332.82z M1525.05,1337v6.03h-4.72V1337c0-1.3,1.06-2.36,2.36-2.36
			C1523.99,1334.64,1525.05,1335.7,1525.05,1337z M1495.04,1325.2v17.83h-30.16v-17.83H1495.04z M1675.4,1341.01l-22.73-39.64h22.73
			V1341.01z M1552.44,1086.28l122.3,213.27h-23.12l-99.18-172.96V1086.28z M1649.52,1299.55h-329.78l-98.51-171.81H1551
			L1649.52,1299.55z M1550.62,1083.77v42.15h-330.44l-24.17-42.15H1550.62z M1195.36,1086.28l22.73,39.64h-22.73V1086.28z
			 M1196,1127.74h23.13l99.18,172.96v22.68h-12.58L1196,1127.74z M1267.23,1325.21h195.8v17.83h-23.74l0.87-2.04h4.83v-9.6h-4.49
			v-1.49h-19.85v1.49h-4.49v1.42H1285.5v11.38h-4.65v6.85h-13.62V1325.21z M1418,1339.19v-5.96h25.17v5.96H1418z M1438.19,1341
			l-0.14,0.34c-0.13-0.11-0.28-0.23-0.43-0.34H1438.19z M1362.61,1351.04h-55.73v-6.85h-4.65v-4.61h113.95v1.42h17.4
			c0.47,0.17,2.36,0.87,3.37,1.79c0.1,0.09,0.17,0.17,0.23,0.23h-71.53c-2.53,0.01-4.59,2.07-4.59,4.6
			C1361.06,1348.95,1361.63,1350.18,1362.61,1351.04z M1294.79,1337.76v-3.12h121.39v3.12H1294.79z M1300.41,1340.42v3.12h-13.07
			v-3.12H1300.41z M1264.26,1352.86h346.55v28.17h-346.55V1352.86z M1279.77,922.03v76.9c0,6.54-5.32,11.87-11.87,11.87
			c-6.54,0-11.87-5.32-11.87-11.87v-76.9c0-6.54,5.33-11.87,11.87-11.87S1279.77,915.48,1279.77,922.03z M1374.9,591.8
			c-0.33,74.52-41.61,142.46-107.77,177.34c-0.23,0.07-0.47,0.2-0.69,0.37c-28.48,14.88-60.63,22.76-92.92,22.76
			c-110.6,0-200.88-89.91-201.37-200.47H1374.9z M1167.1,868.76l3.85,2.66v4.76h1.83v-16.13h-1.83v3.49l-4.1-2.83h0.25v-66.74
			c2.43,0.08,4.48,0.11,6.42,0.11c1.94,0,3.99-0.04,6.42-0.11v463.08c-1.91-0.76-3.85-1.48-5.78-2.14c-2.23-0.76-4.6-1.49-7.06-2.17
			V868.76z M1136.9,845.69l1.53-2.21c0.03-0.04,0.06-0.09,0.08-0.14l32.45,22.42v3.46L1136.9,845.69z M877.18,238.96v27.54
			l-11.96-27.54H877.18z M228.49,753.49V238.96h634.76l13.95,32.1v482.43h-68.05c0.12-4.09,0.28-12.14,0.12-21.99h39.77V260.95
			H256.66v470.56h260.55c-15.29,4.58-29.32,12.07-41.73,22.28v-0.3H228.49z M712.31,558.71c4.22,0,8.28-0.97,12.07-2.88l53.5,92.66
			c-0.17,0.46-0.33,0.96-0.49,1.51H597.31l90.72-157.12l9.51,16.47c-7.6,5.01-12.13,13.38-12.13,22.46
			C685.41,546.64,697.48,558.71,712.31,558.71z M725.97,554.96c8.17-4.83,13.24-13.68,13.24-23.15c0-14.83-12.07-26.9-26.9-26.9
			c-4.61,0-9.18,1.21-13.22,3.5l-10.84-18.77l-0.22-0.39l-0.22,0.39l-93.42,161.82l-0.22,0.39h182.76
			c-2.99,13.21-0.74,37.34,0.12,45.17c-1.97-0.82-5.75-2.01-11.24-2.01c-3.36,0-6.91,0.45-10.55,1.33
			c-10.95,2.65-15.9,8.26-17.74,11c-2.81-9.36-15.4-48.93-26.97-48.93c-0.43,0-0.87,0.05-1.29,0.16
			c-10.18,2.6-6.04,19.94-0.32,43.95l0.07,0.31c0.66,2.77,1.34,5.64,2.03,8.59c1.12,4.83,2.8,10.97,4.98,18.27h-141.2
			c-7.52-2.13-15.32-3.21-23.18-3.21c-9.33,0-18.65,1.09-27.69,3.23l-0.1-0.02H258.48V262.77H847.2v466.91h-37.98
			c-0.23-11.06-0.82-21.27-1.76-30.35c-2.18-21.14-8.84-47.21-18.31-54.48c-1.69-1.3-3.44-1.96-5.18-1.96
			c-0.37,0-0.74,0.03-1.11,0.09c-1.61,0.26-2.98,1.42-4.08,3.45L725.97,554.96z M617.16,753.49
			c-12.96-10.67-24.66-17.69-36.67-21.99h136.06c2.51,8.28,5.18,16.46,7.02,21.99H617.16z M724.19,755.31
			c1.38,4.11,2.37,6.97,2.59,7.6c0,1.51-0.51,25.24-28.44,35.18c-5.66,1.41-11.01,2.13-15.87,2.13c-9.72,0-17.8-2.86-24.03-8.49
			c-5.47-4.95-10.91-10.19-16.16-15.25c-7.39-7.12-14.98-14.44-22.95-21.17H724.19z M464.51,766.66
			c22.37-24.38,54.13-38.37,87.13-38.37c7.83,0,15.23,1,22.61,3.04v0.17h0.63c13.59,3.88,26.73,11.35,41.37,23.52v0.29h0.35
			c8.3,6.92,16.48,14.81,24.4,22.44c5.27,5.08,10.72,10.34,16.24,15.33c6.57,5.94,15.06,8.96,25.23,8.96
			c5.03,0,10.56-0.74,16.42-2.21c30.33-10.78,29.74-36.85,29.73-37.11l-0.04-0.23c-0.02-0.07-1.16-3.33-2.89-8.49v-0.51h-0.17
			c-3.49-10.43-9.72-29.65-12.7-42.49c-0.71-3.06-1.42-6.03-2.1-8.9c-5.48-23-9.44-39.62-1-41.78c0.29-0.07,0.58-0.11,0.88-0.11
			c9.53,0,21.85,35.87,25.79,49.69l0.52,1.82l0.21,0.72l0.28-0.69l0.71-1.76c0.03-0.08,3.67-8.52,17.59-11.9
			c3.45-0.84,6.82-1.26,10.02-1.26c7.73,0,11.92,2.46,11.96,2.49l1.14,0.69l0.45,0.27l-0.06-0.52l-0.16-1.33
			c-1.29-10.94-2.99-34.68-0.27-46.61h3.15l-0.22-0.39l-1.82-3.16c0.89-2.12,2-3.29,3.3-3.5c0.27-0.04,0.54-0.06,0.81-0.06
			c1.34,0,2.72,0.53,4.09,1.58c7.75,5.95,14.99,27.83,17.61,53.22c2.84,27.5,1.56,56.89,1.55,57.19l-0.02,0.39l-0.01,0.15l0.13,0.08
			l0.34,0.2c0.11,0.07,11.11,7.07,17.79,38.7c4.84,28.45,2.36,45.72,1.7,49.41h-393.8c0.13-17.51,4.02-34.35,11.55-50.06
			C450.14,785.99,456.73,776.26,464.51,766.66z M905.15,1345.32c0.09,0,11.38,0.43,26.31,1.11c19.8,1.2,32.24,2.92,35.95,4.99
			c1.35,0.75,2.85,1.98,2.41,3.56c-0.81,2.87-8.75,7.43-26.57,7.43c-1.65,0-3.37-0.04-5.12-0.12c-4.71-0.21-9.67-0.45-14.75-0.73
			c-12.89-1.32-24.62-1.75-27.91-1.85l-0.25-0.01l-0.01,0.25l-0.07,1.3l-0.01,0.25l0.25,0.02c1.17,0.09,11.76,0.94,26.67,1.78
			c24.8,2.5,38.46,6.48,38.45,11.18c0,0.93-0.42,1.75-1.27,2.5c-3.21,2.83-11.71,4.26-25.27,4.26c-6.76,0-14.57-0.36-23.21-1.06
			c-6.29-0.8-11.54-1.19-12.99-1.28l-0.25-0.02l-0.02,0.25l-0.12,1.3l-0.02,0.25l0.25,0.03c0.22,0.03,5.45,0.68,12.83,1.29
			c18.06,2.36,28.65,5.93,29.02,9.8c0.14,1.43-0.29,2.65-1.31,3.73c-2,2.12-6.07,3.61-12.09,4.4c-2.74,0.05-6.01,0.14-9.72,0.6
			c-0.39,0-0.72,0-0.95-0.01c-1.41-1.87-8.47-10.29-26.88-18.09c-12.21-5.18-26.43-5.94-29.77-6.05v-47.76
			c0.23-0.47,1.75-3.01,8.05-3.01c3.06,0,6.81,0.6,11.13,1.78c6.24,1.7,19.95,1.91,32.05,2.09h0.1c5.5,0.08,10.7,0.16,14.93,0.36
			c9.48,0.46,20.14,0.51,27.33,0.51c4.65,0,9.18-0.02,13.56-0.05c3.9-0.02,7.65-0.04,11.11-0.04c6.88,0,14.39,0.07,17.9,0.59
			c0.17,0.02,0.31,0.07,0.47,0.12c0.34,0.15,0.63,0.32,0.88,0.49c0.78,0.73,0.78,1.99,0.71,2.67c-0.48,4.38-6.76,12.97-19.12,12.97
			c-0.61,0-1.25-0.02-1.88-0.07c-10.94-0.77-25.52-1.58-43.35-2.4c-13.55-0.84-25.95-1.13-27.32-1.16l-0.33,0.01l-0.01,0.26
			l-0.04,1.31l-0.01,0.26L905.15,1345.32z M938.51,1461.15c0,45.75-37.22,82.96-82.96,82.96H403.82v-165.93h451.73
			c26.6,0.01,51.8,12.98,67.4,34.7c1.14,1.88,2.3,3.87,3.26,5.58c2.9,5.17,5.91,10.82,8.26,17.15
			C937.15,1443.87,938.51,1452.46,938.51,1461.15z M865.11,1323.85c8.31-5.67,26.12-18,31.05-22.67c4.61-4.37,7.23-6.03,8.26-6.59
			c1.17,1.07,4.03,4.83,0.93,14.14c-2.56,7.68-13.06,17.05-14.61,18.41c-5.83-0.32-9.89-0.81-12.41-1.5
			c-4.47-1.22-8.39-1.84-11.63-1.84C866.15,1323.8,865.62,1323.82,865.11,1323.85z M974.85,1316.26l-0.1-0.09l-44.28-38.72
			l-11.42-186.65l51.57-14.65l61.85,210.03L974.85,1316.26z M927.54,996.24c-2.62-16.69-4.03-34.01,5.43-36.02
			c0.47-0.1,0.93-0.15,1.36-0.15c1.19,0,2.26,0.36,3.27,1.11c5.5,4.07,7.58,18.48,8.67,28.96l0.02,0.26l0.03,0.41
			c0.11,1.21,0.22,2.37,0.35,3.49l0.01,0.08l0.01,0.07c1.55,17.46,0.72,27.82-8.13,29.11c-0.2,0.03-0.39,0.04-0.58,0.04
			C932.88,1023.6,930.12,1012.66,927.54,996.24z M933.62,1023.4h-0.03c-0.47-0.05-1.06-0.08-1.76-0.08c-1.82,0-4.18,0.18-6.71,0.52
			c0.34-0.34,0.65-0.69,0.93-1.07c1.84-2.49,2.66-5.99,2.55-11.16C930.07,1017.58,931.66,1021.32,933.62,1023.4z M925.62,1000.41
			c1.32,8.54,2.11,17.02-1.03,21.27c-1.29,1.74-3.2,2.76-5.86,3.14c-0.24,0.03-0.47,0.05-0.7,0.05c-5.09,0-8.16-8.69-11.47-22.71
			c-2.29-9.64-4.45-21.42-0.88-26.98c1.09-1.7,2.66-2.74,4.79-3.16c0.52-0.1,1.03-0.16,1.52-0.16c1.36,0,2.58,0.4,3.75,1.21
			C921.35,976.99,923.96,989.74,925.62,1000.41z M904.79,1002.58c2.93,12.4,5.68,20.69,10.13,23.26c-6.34,1.67-11.94,3.98-16.26,6.7
			c-4.23-8.19-35.51-69.66-30.13-86.47c0.51-1.6,1.33-2.67,2.5-3.26c0.55-0.28,1.1-0.41,1.69-0.41c0.53,0,1.1,0.12,1.69,0.34
			c10.29,3.96,23.49,38.24,28.45,51.15l0.1,0.25l0.07-0.03C903.47,996.64,904.05,999.41,904.79,1002.58z M931.7,1025.12
			c0.67,0,1.23,0.03,1.68,0.08c2.24,0.25,4.2,2.28,4.76,4.94c0.92,4.38-1.97,9.01-7.74,12.38c-7.8,4.55-19.02,6.76-19.14,6.78
			l-0.76,0.15l-0.3,0.06l0.11,0.29l0.28,0.73c0.17,0.45,4.26,10.97,11.38,10.97c0.12,0,0.25,0,0.38-0.01l0.26-0.01l-0.01-0.26
			l-0.06-1.3l-0.01-0.26l-0.26,0.01h-0.2c-4.81,0-8.23-6.4-9.34-8.81c3.02-0.67,11.88-2.84,18.6-6.77c6.48-3.78,9.69-9.14,8.6-14.33
			c-0.35-1.68-1.17-3.19-2.34-4.35c0.11,0.01,0.21,0.01,0.32,0.01c0.3,0,0.6-0.02,0.92-0.07c7-1.02,10.13-6.48,10.3-18.18
			c1.47,4.08,3.56,6,6.5,6h0.01c2.78,0,4.94-0.81,6.58-2.47c1.58-1.59,2.63-3.89,3.25-7.16c1.35,9.93,3.94,25.98,7.41,33.95
			c8.69,19.95-0.82,34.75-2.19,36.72l-52.59,14.96c-7.95-2.32-10.43-8-13.31-14.59c-1.06-2.44-2.16-4.96-3.61-7.51
			c-6.46-11.39-12.22-23.8-6.05-29.57C905.05,1028.24,924.4,1025.12,931.7,1025.12z M948.49,994.31c-0.13-1.45-0.27-2.91-0.42-4.37
			c-0.7-8.18-1.05-18.12,2.6-22.33c1.12-1.29,2.55-1.97,4.39-2.07c0.13-0.01,0.27-0.01,0.4-0.01c1.52,0,2.79,0.5,3.88,1.52
			c4.27,4,4.93,15.17,5.04,24.45c0.07,7.42-0.29,14.73-3.46,17.94c-1.28,1.3-3.01,1.93-5.29,1.93l-0.01,0.13c0,0,0,0-0.01,0v-0.13
			C951.22,1011.36,949.58,1004.54,948.49,994.31z M972.23,1075.19c1.48-2.18,11.28-17.8,2.31-38.4
			c-5.02-11.52-8.28-41.55-8.32-41.86l-0.03-0.26h-0.01c0.01-1.01,0.01-2.08,0-3.19c-0.11-9.65-0.84-21.29-5.61-25.76
			c-1.43-1.34-3.15-2.01-5.13-2.01c-0.16,0-0.33,0-0.49,0.01c-2.32,0.13-4.22,1.03-5.66,2.7c-1.73,2-2.79,5.13-3.23,9.55
			c-1.74-8.54-4.16-13.86-7.38-16.24c-1.32-0.97-2.78-1.46-4.36-1.46c-0.56,0-1.14,0.06-1.73,0.19c-9.13,1.94-9.42,15.16-8.38,26.32
			c-1.98-6.77-4.43-11.1-7.43-13.19c-1.46-1.02-3.08-1.54-4.81-1.54c-0.61,0-1.23,0.06-1.86,0.19c-2.6,0.52-4.61,1.85-5.96,3.96
			c-1.78,2.77-2.45,6.95-2.05,12.74c-11.1-28.14-19.95-43.16-27.05-45.89c-0.8-0.31-1.58-0.46-2.34-0.46c-0.87,0-1.71,0.2-2.51,0.61
			c-1.6,0.81-2.75,2.27-3.41,4.33c-5.7,17.83,26.15,80,30.34,88.04c-1.19,0.84-2.28,1.72-3.25,2.62c-7.1,6.63-1.1,19.79,5.7,31.8
			c1.39,2.46,2.47,4.93,3.52,7.32c3.02,6.92,5.63,12.89,14.1,15.5l11.32,184.96l-130.9-114.46c-8.15-7.61-17.17-13.73-26.82-18.17
			c13.4-16.98-2.87-87.94-5-96.93c7.44-4.76,11.88-12.83,11.88-21.61c0-8.84-4.48-16.93-12-21.68v-2.48c0-1.53-0.04-3.87-0.12-5.82
			c3.86,1.03,7.77,1.59,11.64,1.66c0.34,0.01,0.69,0.01,1.03,0.01c17.35,0,30.34-8.77,35.63-24.06
			c6.02-17.38,0.44-38.79-12.71-48.74c-6.6-5-13.92-7.53-21.74-7.53c-11.74,0-21.57,5.68-25.76,8.53
			c1.29-5.77,3.65-21.68-8.33-26.17c-2.97-1.11-5.85-1.68-8.58-1.68c-9.71,0-15.25,6.98-17.39,10.44
			c-3.93-9.1-22.7-48.29-54.29-48.29c-2.63,0-5.32,0.28-8,0.83c-26.29,5.38-26.32,36.77-25.94,44.19
			c-4.1-2.12-16.57-7.95-29.56-7.95c-10.24,0-18.5,3.59-24.55,10.67c-14.21,16.65-6.25,33.38-4.14,37.15
			c-4.98,2.68-26.63,16.3-26.51,49.8c0.08,24.02,13.56,47.13,16.63,52.08c-7.77,5.14-12.41,13.72-12.41,22.99
			c0,15.2,12.37,27.57,27.57,27.57c1.94,0,3.92-0.22,5.86-0.64c0.67,5.69,3.75,30.49,7.13,34.92c2.91,3.81,5.43,5.74,7.5,5.75
			c0.21,0,0.41-0.02,0.6-0.06l5.48,32.04l-4.26,1.79l-0.17,0.07c-59.63,25.07-141.24,59.37-196.49,91.57V951.89
			c0.18,0.01,0.36,0.01,0.53,0.01c0.51,0,1.01-0.02,1.48-0.06c16.52-1.44,17.51-32.36,18.39-59.64c0.26-8,0.5-15.54,1.1-22.05
			l0.05-0.54c0.66-7.11,1.34-14.46,2.49-22.14h510.8c89.22,0,161.81,72.59,161.81,161.81v244c-8.89,2.6-17.45,6.19-25.47,10.7
			l-40.87,21.33L972.23,1075.19z M593.46,1091.53c1.85-1.29,3.52-2.71,4.98-4.3l0.17-0.19l-0.19-0.17l-0.96-0.88l-0.19-0.17
			l-0.17,0.19c-4.86,5.28-11.77,8.3-18.94,8.3c-14.2,0-25.75-11.55-25.75-25.75c0-14.17,11.5-25.7,25.66-25.75
			c5.16,6.25,12.3,16.17,17.24,28.23l1.7,4.14l0.67,1.63l-0.18-1.75l-0.44-4.45c-0.01-0.13-1.32-13.44-0.22-36.97
			c0.88-18.93,4.36-27.37,5.61-29.83c2.14,1.39,8.77,5.12,18.45,5.12c5.17,0,10.49-1.06,15.8-3.15
			c17.66-6.95,22.77-20.71,24.02-25.33c4.59,3.08,25.15,15.79,51.87,15.79c1.08,0,2.17-0.02,3.25-0.06
			c6.42-0.33,11.02-2.58,13.69-6.69c3.74-5.76,2.75-13.82,1.6-18.77c4.85,6.01,16.41,18.39,32.6,23.38c0.1,1.99,0.15,4.66,0.15,6.35
			v1.4c-3.64-1.9-7.73-2.9-11.85-2.9c-0.5,0-0.91,0.41-0.91,0.91s0.41,0.91,0.91,0.91c13.15,0,23.85,10.7,23.85,23.85
			c0,2.81-0.5,5.56-1.48,8.2c0.02-0.32,0.03-0.64,0.03-0.96c0-8.37-6.81-15.17-15.17-15.17c-1.59,0-3.17,0.25-4.7,0.75l-0.36,0.12
			l0.24,0.29c0.86,1.03,1.31,2.25,1.31,3.54c0,3.06-2.49,5.55-5.55,5.55c-1.58,0-3.04-0.66-4.11-1.85l-0.25-0.28l-0.17,0.34
			c-1.05,2.12-1.58,4.38-1.58,6.72c0,8.36,6.81,15.17,15.17,15.17c0.32,0,0.64-0.01,0.96-0.03c-2.64,0.98-5.39,1.48-8.2,1.48
			c-0.59,0-1.18-0.02-1.75-0.06h-0.09c-0.46,0-0.85,0.37-0.89,0.84c-0.02,0.24,0.06,0.48,0.22,0.66s0.38,0.3,0.62,0.31
			c0.61,0.05,1.24,0.07,1.89,0.07c4.23,0,8.42-1.06,12.15-3.07c2.22,9.59,17.94,80.01,4.94,95.15l-0.02,0.03
			c-13.09-5.72-27.82-8.62-43.78-8.62c-34.86,0-71.6,13.68-99.71,25.59c-6.07,2.57-12.48,5.27-19.15,8.08L593.46,1091.53z
			 M598.95,1134.31c-0.07,0.02-0.15,0.03-0.24,0.03h-0.1c-0.68-0.02-2.6-0.56-6.01-5.03c-2.67-3.49-5.6-23.81-6.8-34.27
			c2.09-0.62,4.11-1.47,6-2.54L598.95,1134.31z M575.35,944.18l-0.43-0.64c-0.12-0.18-11.78-17.93,3.49-35.83
			c5.68-6.66,13.49-10.04,23.2-10.04c15.22,0,29.94,8.42,30.08,8.5l1.12,0.65l0.44,0.26l-0.05-0.51l-0.14-1.29
			c-0.04-0.38-3.78-38.13,24.38-43.89c2.55-0.52,5.11-0.79,7.62-0.79c34.3,0,53.15,48.39,53.33,48.88l0.56,1.46l0.22,0.57l0.25-0.56
			l0.65-1.42c0.21-0.45,5.2-11.1,16.59-11.1c2.54,0,5.24,0.53,8.03,1.58c13.23,4.96,6.65,26.21,6.58,26.42l-0.68,2.12l-0.27,0.83
			l0.67-0.56l1.71-1.42c0.12-0.1,11.75-9.63,26.67-9.63c7.44,0,14.39,2.41,20.67,7.15c12.55,9.5,17.86,30.01,12.09,46.69
			c-5.03,14.51-17.37,22.83-33.87,22.83c-0.35,0-0.69,0-1.04-0.01c-29.23-0.55-47.5-28.62-47.68-28.91l-3.49-5.46l-1.38-2.15
			l0.92,2.38l2.34,6.04c0.05,0.14,5.3,14.02,0.05,22.12c-2.33,3.59-6.45,5.57-12.24,5.86c-1.03,0.04-2.08,0.06-3.12,0.06
			c-29.98,0-51.74-16.04-51.95-16.21l-0.86-0.64l-0.34-0.25l-0.07,0.42l-0.17,1.06c-0.03,0.17-3.05,17.36-23.21,25.29
			c-5.1,2.01-10.19,3.02-15.14,3.02c-11.35,0-18.1-5.28-18.17-5.33l-0.55-0.43l-0.21-0.17l-0.16,0.23l-0.4,0.57
			c-0.21,0.31-5.27,7.83-6.38,31.58c-0.71,15.17-0.41,26.2-0.12,32.07c-9.33-19.66-23.32-32.57-23.46-32.7l-0.19-0.17l-0.17,0.19
			l-0.88,0.96l-0.17,0.19l0.19,0.17c0.03,0.02,2.69,2.5,6.39,6.81c-4.24,0.24-8.39,1.46-12.05,3.55
			c-3.02-4.86-16.28-27.56-16.36-51.14c-0.12-36.22,26.08-48.48,26.35-48.6l0.7-0.29l0.28-0.12L575.35,944.18z M428.15,845.65
			c1.61-10.13,3.83-19.12,6.89-27.85c-2.24,9.08-3.41,18.43-3.48,27.85H428.15z M403.82,847.46h4.48c-1.54,3.12-3.04,6.3-4.48,9.47
			V847.46z M391.93,943.94c-5.78-7.52-9.63-24.93,4.91-65.12c13.17-36.4,33.45-67.98,48.97-88.96c-0.88,1.62-1.72,3.27-2.51,4.92
			c-15.47,28.47-17.74,53.01-19.73,74.66l-0.05,0.54c-0.61,6.58-0.85,14.15-1.11,22.16c-0.85,26.52-1.82,56.58-16.73,57.89
			c-0.43,0.04-0.88,0.06-1.34,0.06C401.47,950.09,396.04,949.29,391.93,943.94z M402,1376.34c-20.61-0.33-35.73-11.77-41.49-31.42
			c-6.61-22.54,0.82-54.44,27.83-71.78c4.14-2.66,8.62-5.41,13.66-8.39l1.82-1.07c55.17-32.31,137.25-66.81,197.19-92.01
			c8.01-3.37,17.09-7.18,25.3-10.66c27.94-11.84,64.43-25.44,98.97-25.44c28.36,0,51.63,8.86,71.13,27.08l176.7,154.5l-21.81,11.39
			c-6.92-0.01-17.14-0.06-26.28-0.51c-4.26-0.21-9.47-0.29-14.99-0.37h-0.06c-5.3-0.08-11.27-0.17-16.63-0.4
			c3.7-3.38,11.44-11.06,13.74-17.96c4.18-12.53-1.81-16.4-2.06-16.56l-0.27-0.17l-0.11-0.07l-0.12,0.05l-0.3,0.11
			c-0.11,0.04-2.87,1.1-9.3,7.19c-6.12,5.8-33.56,24.35-34.72,25.14c-1.71,0.79-2.57,1.83-2.95,2.47l-302.94-41.73l-0.25-0.03
			l-0.04,0.25l-0.18,1.29l-0.04,0.25l0.25,0.04l302.81,41.71v47.16c-0.12,0-0.25-0.01-0.37-0.01c-0.31-0.01-0.63-0.02-0.94-0.02
			H403.82L402,1376.34z M436.84,1760.78h-33.02v-133.31h33.02V1760.78z M484.83,1760.78h-46.17v-133.31h46.17V1760.78z
			 M771.81,1680.97H486.65v-53.5h285.16V1680.97z M806.65,1760.78h-33.02v-133.31h33.02V1760.78z M854.63,1760.78h-46.17v-133.31
			h46.17V1760.78z M1065.63,1680.97H856.45v-53.5h209.18V1680.97z M403.81,1625.64v-79.71h466.52l211.28,79.71H403.81z
			 M1100.47,1760.77h-33.02v-133.31h18.99l14.03,5.3V1760.77z M1148.46,1760.78h-46.17v-127.33l46.17,17.42V1760.78z
			 M1150.28,1716.02v-33.22h0.95l0.21,33.06L1150.28,1716.02z M1150.28,1680.97v-29.41l0.75,0.28l0.19,29.13H1150.28z
			 M1134.71,1248.39c-10.96,0-21.87,1.47-32.43,4.38v-243.48c0.01-90.24-73.39-163.64-163.62-163.64H828.98
			c0.67-3.96,3.04-21.57-1.76-49.75c-6.21-29.47-15.99-38.03-18.18-39.62c0.01-0.24,0.02-0.57,0.04-0.97h69.93V275.25l136.74,314.73
			h-45.43v0.91c0,52.8,20.23,102.85,56.97,140.95c36.58,37.93,85.58,59.97,137.99,62.07v65.72l-26.12-18.04
			c0.25-1.69-0.48-3.39-1.88-4.36l-48.7-33.64c-0.75-0.52-1.63-0.79-2.55-0.79c-1.49,0-2.87,0.72-3.71,1.94l-1.62,2.35
			c-1.41,2.04-0.9,4.85,1.14,6.26l48.7,33.64c0.74,0.51,1.62,0.79,2.52,0.79c0.89,0,1.78-0.27,2.52-0.76l29.69,20.51v384.75
			C1155.3,1249.7,1145.02,1248.39,1134.71,1248.39z M1374.02,1760.37l-220.48,0.39l-0.69-108.24l96.04,36.23
			c4.36,7.72,18.37,10.53,34.88,13.16l81.64,30.8l0.03,0.01C1373.93,1744.53,1374.11,1757.32,1374.02,1760.37z M1539.94,1509.53
			c-7.1,0.01-17.02,1.1-23.94,6.3c-4.59,3.45-7.26,8.26-7.95,14.31c-0.99,8.83,3.18,15.92,12.41,21.08
			c-5.19,2.07-10.09,5.12-14.55,9.08c-1.28,1.13-2.6,2.38-4.13,3.92l-0.24,0.1c-15.98,7.09-23.51,17.09-22.39,29.71
			c-3.92,6.35-7.57,12.8-10.52,17.98c-7.08,12.48-13.22,23.3-19.09,28.07v-185.94h100.16v56.04
			C1548.07,1509.96,1544.39,1509.53,1539.94,1509.53z M1549.7,1512.04v37.4c-3.96-0.98-8.01-1.47-12.04-1.47
			c-5.14,0-10.16,0.82-14.92,2.43c-9.5-4.85-13.83-11.59-12.88-20.05c0.62-5.53,3.05-9.92,7.23-13.06
			c6.48-4.87,16.07-5.89,22.96-5.89C1544.55,1511.4,1548.16,1511.82,1549.7,1512.04z M1498.23,1567.96
			c-5.74,6.31-11.43,13.96-17.36,23.32C1481.02,1581.81,1486.85,1573.97,1498.23,1567.96z M1394.41,1452.34v23.35h-140.15
			l-3.58-76.36h299.03v53.01H1394.41z M1447.73,1454.15v187.22c-1.15,0.69-2.21,1.11-3.24,1.28c-0.84,0.14-1.71,0.26-2.61,0.34
			v-188.84H1447.73z M1440.06,1454.16v188.96c-0.77,0.04-1.56,0.06-2.36,0.06c-1.12,0-2.29-0.04-3.49-0.11v-188.91H1440.06z
			 M1432.4,1454.15v188.77c-1.88-0.17-3.84-0.43-5.85-0.78v-187.99H1432.4z M1424.73,1454.15v187.66c-1.92-0.37-3.89-0.81-5.85-1.32
			v-186.34H1424.73z M1411.23,1601.69l-0.01-147.54h5.85v185.86c-1.93-0.53-3.9-1.12-5.85-1.76v-35.83l0.14-0.41l0.08-0.22
			L1411.23,1601.69z M1409.4,1607.63v30.02c-4.49-1.54-7.81-2.95-9.24-3.58L1409.4,1607.63z M1396.23,1594.72v-140.57h5.51v143.13
			L1396.23,1594.72z M1403.55,1598.13v-143.98h5.85v146.69L1403.55,1598.13z M1256.81,1530.03l-2.46-52.54h140.06v66.24
			l-16.63-48.11l-0.42-1.22l-0.08,1.29l-3.85,64.42l-41.56,4.75L1256.81,1530.03z M1273.36,1697.99h-1.27
			c-10.5-2.16-16.77-4.67-20.04-8.04L1273.36,1697.99z M1335.03,1566.34l39.91-4.57l0.21-0.02l0.01-0.22l3.46-57.89l15.78,45.66
			v44.59L1335.03,1566.34z M1467.94,1760.78v-2.92l7.92,2.92H1467.94z M1480.42,1760.52l-110.24-40.62l29.39-84.1
			c4.08,1.78,22.05,9.21,38.13,9.21c2.52,0,4.91-0.18,7.1-0.55c8.33-1.38,15.87-14.69,25.43-31.53
			c9.43-16.62,21.16-37.29,36.9-51.25c8.9-7.89,19.18-11.9,30.53-11.9c8.68,0,15.33,2.41,17.48,3.3l-31.1,86.35l-0.18,0.01
			l0.01,0.24c0,0.04,0.01,0.08,0.01,0.12v0.04L1480.42,1760.52z M1545.95,1660.23c-4.13,0-10.13-1.32-15.29-7.59
			c-2.95-3.58-4.61-7.8-4.93-12.55l23.98-66.58v86.33C1548.97,1660,1547.65,1660.23,1545.95,1660.23z M1549.7,1661.68v36.31h-44.83
			l19.53-54.23c0.79,3.72,2.42,7.09,4.85,10.04c5.58,6.77,12.22,8.2,16.81,8.2C1547.59,1662,1548.84,1661.84,1549.7,1661.68z
			 M1568.19,1760.77h-85.93l16.03-44.5h69.9V1760.77z M1568.35,1714.44h-69.43l5.28-14.65h47.32v-131.33l5.61-15.58l0.2-0.55
			l0.08-0.22l-0.21-0.1l-0.53-0.26c-0.02-0.01-1.92-0.91-5.15-1.84v-152.42h-300.94l-0.69-14.65h318.46V1714.44z M1620.53,1760.78
			h-50.52v-44.5h50.52V1760.78z M1570.17,1714.46v-331.61h123.16c0.64,0.78,1.2,1.44,1.74,2.06c-24.8,8.96-41.43,32.64-41.43,59.04
			c0,33.09,25.81,60.58,58.78,62.65c5.91,10.34,16.96,16.76,28.86,16.76c6.41,0,12.63-1.84,18-5.31v196.41H1570.17z
			 M1759.29,1760.77h-23.47v-44.5h23.47V1760.77z M2006.02,1760.78h-244.91v-161.97h244.91V1760.78z M2006.02,1597h-244.91v-79.72
			h244.91V1597z M2006.02,1515.45h-243.25c7.47-6.34,11.75-15.53,11.75-25.32c0-0.27,0-0.54-0.01-0.82
			c6.2,6.21,14.73,9.76,23.51,9.76c18.32,0,33.23-14.91,33.23-33.23c0-0.44-0.01-0.93-0.03-1.48h74.04
			c0.46,1.47,0.89,2.67,1.37,3.76c4.68,10.71,13.66,17.03,25.97,18.29c0.81,0.08,1.62,0.13,2.42,0.13
			c13.32,0,22.86-11.04,25.49-22.05c9.73,4.88,20.22,7.36,31.16,7.36c2.34,0,4.76-0.13,7.23-0.39c-0.33,1.62-0.49,3.24-0.49,4.8
			c0,6.78,2.7,13.11,7.61,17.85V1515.45z M2000.19,1476.29c0.04-1.85,0.28-3.75,0.76-5.65l0.23-0.92l0.09-0.36l-0.37,0.05
			l-0.94,0.12c-2.83,0.35-5.62,0.52-8.29,0.52c-11.05,0-21.61-2.59-31.38-7.7l-0.78-0.41l-0.31-0.16l-0.07,0.34l-0.17,0.86
			c-2.05,10.55-11.16,21.75-23.98,21.75c-0.73,0-1.48-0.04-2.22-0.11c-11.62-1.19-20.09-7.14-24.49-17.21
			c-0.55-1.27-1.05-2.68-1.55-4.45v-0.41h-0.11c-4.37-15.85,0.43-36.74,11.97-52.06l0.15-0.21l-0.21-0.15l-1.04-0.79l-0.21-0.15
			l-0.15,0.21c-11.7,15.54-16.67,36.85-12.4,53.16h-73.65c-0.97-11.57-6.66-26.26-19.78-33.09l-0.23-0.12l-0.12,0.23l-0.6,1.16
			l-0.12,0.23l0.23,0.12c14.97,7.79,18.96,25.53,18.96,34.77c0,17.32-14.09,31.41-31.41,31.41c-9.19,0-17.9-4.02-23.89-11.03
			l-1.36-1.59l-0.53-0.63l0.08,0.82l0.21,2.08c0.11,1.07,0.16,2.16,0.16,3.22c0,17.32-14.09,31.41-31.41,31.41
			c-11.44,0-21.98-6.23-27.52-16.26l-0.17-0.32l-0.07-0.13l-0.14-0.01l-0.36-0.02c-32.28-1.77-57.56-28.51-57.56-60.86
			c0-26.19,16.67-49.4,41.49-57.77l0.95-0.32l0.37-0.13l-0.27-0.29l-0.68-0.74c-12.83-14.03-19.9-32.24-19.9-51.26
			c0-41.91,34.09-76,76-76c17.05,0,33.17,5.53,46.62,16l0.67,0.52l0.26,0.21l0.13-0.31l0.33-0.78c4.95-11.58,16.3-19.07,28.89-19.07
			c10.03,0,19.54,4.86,25.44,13l1.24,1.72l0.49,0.68l-0.02-0.83l-0.07-2.47c-0.01-0.3-0.02-0.61-0.02-0.91
			c0-23.7,19.28-42.98,42.97-42.98c23.7,0,42.98,19.28,42.98,42.98c0,6.06-1.25,11.94-3.71,17.46l-1.21,2.72l-0.48,1.07l0.88-0.77
			l2.24-1.96c8.26-7.25,18.86-11.24,29.85-11.24c24.97,0,45.29,20.32,45.29,45.29c0,6.5-1.36,12.79-4.05,18.71l-0.3,0.66l-0.12,0.26
			l0.27,0.09l0.69,0.23c28,9.12,46.81,35.04,46.81,64.5c0,8.6-1.61,17.01-4.77,25l-0.14,0.34l-0.05,0.13l0.09,0.12l0.22,0.29
			c3.05,4.03,4.66,8.82,4.66,13.84c0,9.88-6.3,18.65-15.68,21.8l-0.75,0.25l-0.29,0.1l0.15,0.27l0.38,0.69
			c1.92,3.43,2.94,7.32,2.94,11.24c0,12.7-10.33,23.02-23.02,23.02C2010.51,1499.31,2000.19,1488.98,2000.19,1476.29z
			 M2396.76,1628.67v0.63h-286.8v-0.63H2396.76z M2109.96,1656.43v-2.71h286.8v2.71H2109.96z M2396.76,1657.59v0.63h-286.8v-0.63
			H2396.76z M2109.96,1652.55v-2.71h286.8v2.71H2109.96z M2109.96,1648.68v-2.71h286.8v2.71H2109.96z M2109.96,1644.8v-2.71h286.8
			v2.71H2109.96z M2109.96,1640.93v-2.71h286.8v2.71H2109.96z M2109.96,1637.05v-2.71h286.8v2.71H2109.96z M2109.96,1633.18v-2.71
			h286.8v2.71H2109.96z M2331.41,1358.85c2.88,0,5.54,1.16,7.51,3.26c1.96,2.11,2.93,4.84,2.73,7.71l-13.04,186.02
			c-0.38,5.35-4.87,9.55-10.24,9.55h-32.67c3.14-1.81,5.46-4.89,6.32-8.41h31.84l0.02-0.24l13.39-191l0.05-0.7l0.02-0.27h-33.33
			c-0.6-1.28-1.39-2.44-2.34-3.47c-0.9-0.96-1.93-1.78-3.07-2.45H2331.41z M2304.7,1366.59h2.52L2294,1555.16h-1.66
			c0.02-0.14,0.04-0.27,0.04-0.41l12.85-183.36C2305.35,1369.76,2305.17,1368.15,2304.7,1366.59z M2332.55,1366.59l-13.22,188.57h-2
			l13.22-188.57L2332.55,1366.59L2332.55,1366.59z M2333.71,1366.59h1.67v0l-13.22,188.57h-1.67L2333.71,1366.59z M2329.38,1366.59
			l-13.22,188.57h-2l13.22-188.57L2329.38,1366.59L2329.38,1366.59z M2313,1555.16h-2l13.22-188.57h1.99L2313,1555.16z
			 M2323.05,1366.59l-13.22,188.57h-2l13.22-188.57L2323.05,1366.59L2323.05,1366.59z M2319.88,1366.59l-13.22,188.57h-2
			l13.22-188.57L2319.88,1366.59L2319.88,1366.59z M2316.72,1366.59l-13.22,188.57h-2l13.22-188.57L2316.72,1366.59L2316.72,1366.59
			z M2313.55,1366.59l-13.22,188.57h-2l13.22-188.57L2313.55,1366.59L2313.55,1366.59z M2310.39,1366.59l-13.22,188.57h-2
			l13.22-188.57L2310.39,1366.59L2310.39,1366.59z M2141.62,1561.72c-2.22-2.38-3.31-5.47-3.09-8.72l12.85-183.36
			c0.42-6.05,5.5-10.78,11.57-10.78h128.91c3.25,0,6.26,1.31,8.48,3.69c2.21,2.38,3.31,5.47,3.08,8.71l-12.85,183.36
			c-0.42,6.05-5.5,10.79-11.57,10.79h-128.9C2146.85,1565.41,2143.83,1564.1,2141.62,1561.72z M2086.32,1577.05
			c-1.89,0-3.43-1.54-3.43-3.43v-2.96c0-1.89,1.54-3.43,3.43-3.43h254.2c1.89,0,3.43,1.54,3.43,3.43v2.96
			c0,1.89-1.54,3.43-3.43,3.43H2086.32z M2092.94,1598.16v-2.09h240.97v2.09H2092.94z M2333.91,1599.33v2.09h-240.97v-2.09H2333.91z
			 M2092.94,1594.9v-2.09h240.97v2.09H2092.94z M2092.94,1591.64v-2.09h240.97v2.09H2092.94z M2092.94,1588.38v-2.09h240.97v2.09
			H2092.94z M2092.94,1585.13v-2.09h240.97v2.09H2092.94z M2092.94,1581.87v-2.09h240.97v2.09H2092.94z M2086.32,1613.98
			c-1.89,0-3.43-1.54-3.43-3.43v-2.96c0-1.89,1.54-3.43,3.43-3.43h254.2c1.89,0,3.43,1.54,3.43,3.43v2.96
			c0,1.89-1.54,3.43-3.43,3.43H2086.32z M2403.57,1743.82c2.62,0,4.75,2.13,4.75,4.76v7.45c0,2.62-2.13,4.76-4.75,4.76h-332.03
			c-2.62,0-4.76-2.13-4.76-4.76v-7.45c0.01-2.63,2.14-4.76,4.76-4.76H2403.57z M2395.21,1696.01v4.93H2079.9v-4.93H2395.21z
			 M2079.9,1694.85v-3.34h315.31v3.34H2079.9z M2395.21,1702.1v4.93H2079.9v-4.93H2395.21z M2395.21,1708.2v4.93H2079.9v-4.93
			H2395.21z M2395.21,1714.3v4.92H2079.9v-4.92H2395.21z M2395.21,1720.38v4.93H2079.9v-4.93H2395.21z M2395.21,1726.47v4.93H2079.9
			v-4.93H2395.21z M2395.21,1732.57v4.92H2079.9v-4.92H2395.21z M2395.21,1738.66v3.34H2079.9v-3.34H2395.21z M2408.33,1684.94
			c0,2.62-2.13,4.76-4.75,4.76h-332.03c-2.62,0-4.76-2.13-4.76-4.76v-7.45c0-2.62,2.13-4.75,4.76-4.75h332.03
			c2.61-0.01,4.75,2.13,4.75,4.75V1684.94z"/>
		<path d="M2229.63,1028.9c-6.84,23.16-14.32,46.03-22.24,67.99c-37.39,103.72-75.16,163.19-75.53,163.78l-1.99,3.1l-0.78,1.22
			l1.15-0.88l2.93-2.23c1.14-0.86,114.05-86.46,157.03-86.46c5.29,0,9.31,1.33,11.96,3.96c0.76,0.75,0.89,2.09,0.37,3.98
			c-0.72,1.91-1.13,2.9-1.13,2.91l-0.1,0.24l0.03,0.01c-3.9,8.37-14.62,21.95-25.96,36.32c-26.66,33.78-59.84,75.82-42.08,92.96
			c2.73,2.64,5.92,3.92,9.74,3.92c11.38,0,26.13-11.48,43.19-24.77c5.08-3.95,10.33-8.04,15.66-11.94
			c29-21.21,53.61-28.78,69.15-31.4c5.65-0.95,11.08-1.43,16.15-1.43c9.84,0,18.3,1.85,23.21,5.06c1.41,0.93,1.54,3.03,0.39,6.43
			c-0.5,1.31-1.01,2.54-1.49,3.65c-1.7,3.7-4.22,8.18-6.65,12.52c-9.12,16.23-20.47,36.42-10.79,48.52
			c6.67,8.34,20.28,12.57,40.45,12.57c15.68,0,29.55-2.62,31.08-2.91l0.5-0.1l0.2-0.04l0.01-0.2l0.03-0.51
			c0.15-2.69,14.5-272.09,0-510.66c-8.8-144.75-43.41-579.5-43.75-583.85v-0.61v-0.26h-0.26h-0.05H2191.5h-694.66h-0.26v0.26v717.17
			v1.31v70.1v0.26h0.26h732.79V1028.9z M1809.63,663.58c0-22.73-10.2-43.68-28.05-57.71c34.58,10.49,58.61,42.8,58.61,79.06
			c0,45.56-37.07,82.63-82.63,82.63c-36.25,0-68.56-24.03-79.06-58.61c14.03,17.84,34.98,28.05,57.71,28.05
			C1776.7,736.99,1809.63,704.06,1809.63,663.58z M2239.93,992.03c-3.09,11.72-6.37,23.51-9.76,35.05h-731.76v-35.05L2239.93,992.03
			L2239.93,992.03z M2194.13,241.63h224.42v11.34H2200.2h-0.19c-0.66-1.25-1.31-2.44-1.93-3.57
			C2196.22,245.63,2194.87,243.02,2194.13,241.63z M2428.43,1194.98c4.53-29.72,2.53-31.28,1.87-31.8c-0.21-0.16-0.45-0.25-0.7-0.25
			c-0.14,0-0.27,0.03-0.39,0.08l-0.24,0.1l0.1,0.24l0.34,0.81c-0.03-0.01-0.06-0.02-0.1-0.02c-0.14,0-0.26,0.12-0.26,0.26
			c0,0.06,0.02,0.12,0.06,0.16c0.08,0.11,1.71,2.65-2.48,30.15c-4.64,30.42-9.95,49.81-13.67,60.89c-0.33-0.76-0.85-1.39-1.57-1.86
			c-5.19-3.41-14.17-5.36-24.62-5.36c-15.17,0-46.51,4.31-85.96,33.18c-5.31,3.89-10.54,7.96-15.6,11.89l-0.1,0.07
			c-16.79,13.07-31.3,24.36-42.04,24.36c-3.36,0-6.15-1.11-8.51-3.39c-16.58-16,16.04-57.32,42.24-90.52
			c11.96-15.15,22.31-28.26,26.17-36.78l0,0l0.11-0.23l0.08-0.21c0.25-0.57,0.47-1.15,0.69-1.76c3.54-9.26,15.61-43.25,22.06-91.47
			c4.16-31.09,5.19-52.28,5.32-64.64h24.04c0.22,0.54,0.65,0.95,1.15,1.2c-0.79,0.39-1.34,1.19-1.34,2.13
			c0,0.93,0.54,1.73,1.32,2.12c-0.78,0.39-1.32,1.19-1.32,2.12s0.54,1.73,1.32,2.12c-0.78,0.39-1.32,1.19-1.32,2.12
			s0.54,1.73,1.32,2.12c-0.78,0.39-1.32,1.19-1.32,2.12s0.54,1.73,1.32,2.12c-0.78,0.39-1.32,1.19-1.32,2.12s0.54,1.73,1.32,2.12
			c-0.78,0.39-1.32,1.19-1.32,2.12s0.54,1.73,1.32,2.12c-0.78,0.39-1.32,1.19-1.32,2.12s0.54,1.73,1.32,2.12
			c-0.78,0.39-1.32,1.19-1.32,2.12s0.54,1.73,1.32,2.12c-0.78,0.39-1.32,1.19-1.32,2.12s0.54,1.73,1.32,2.12
			c-0.78,0.39-1.32,1.19-1.32,2.12s0.54,1.73,1.32,2.12c-0.78,0.39-1.32,1.19-1.32,2.12s0.54,1.73,1.32,2.12
			c-0.78,0.39-1.32,1.19-1.32,2.12s0.54,1.73,1.32,2.12c-0.78,0.39-1.32,1.19-1.32,2.12s0.54,1.73,1.32,2.12
			c-0.78,0.39-1.32,1.19-1.32,2.12s0.54,1.73,1.32,2.12c-0.78,0.39-1.32,1.19-1.32,2.12c0,0.72,0.33,1.38,0.85,1.82h-4.87h-0.26
			v0.26v74.22c0,3.67,2.99,6.66,6.66,6.66s6.66-2.99,6.66-6.66v-74.22v-0.26h-0.26H2359c0.52-0.44,0.85-1.1,0.85-1.82
			c0-0.93-0.54-1.73-1.32-2.12c0.78-0.39,1.32-1.19,1.32-2.12s-0.54-1.73-1.32-2.12c0.78-0.39,1.32-1.19,1.32-2.12
			s-0.54-1.73-1.32-2.12c0.78-0.39,1.32-1.19,1.32-2.12s-0.54-1.73-1.32-2.12c0.78-0.39,1.32-1.19,1.32-2.12s-0.54-1.73-1.32-2.12
			c0.78-0.39,1.32-1.19,1.32-2.12s-0.54-1.73-1.32-2.12c0.78-0.39,1.32-1.19,1.32-2.12s-0.54-1.73-1.32-2.12
			c0.78-0.39,1.32-1.19,1.32-2.12s-0.54-1.73-1.32-2.12c0.78-0.39,1.32-1.19,1.32-2.12s-0.54-1.73-1.32-2.12
			c0.78-0.39,1.32-1.19,1.32-2.12s-0.54-1.73-1.32-2.12c0.78-0.39,1.32-1.19,1.32-2.12s-0.54-1.73-1.32-2.12
			c0.78-0.39,1.32-1.19,1.32-2.12s-0.54-1.73-1.32-2.12c0.78-0.39,1.32-1.19,1.32-2.12s-0.54-1.73-1.32-2.12
			c0.78-0.39,1.32-1.19,1.32-2.12s-0.54-1.73-1.32-2.12c0.78-0.39,1.32-1.19,1.32-2.12c0-0.94-0.55-1.74-1.34-2.13
			c0.51-0.25,0.93-0.66,1.15-1.2h60.61h0.26v-0.26v-71.4v-0.26h-0.16V263.69c6.74,85.15,34.27,434.84,41.94,560.95
			c14.17,233.11,0.76,495.92,0.04,509.73c-2.94,0.52-15.85,2.66-29.97,2.66c-19.41,0-32.93-4.08-39.1-11.79
			c-8.92-11.14,2.1-30.75,10.95-46.5c1.83-3.27,3.73-6.64,5.27-9.68l0.13-0.17c0-0.01,0.52-0.97,1.43-3.08
			c0.52-1.15,0.93-2.17,1.27-3.12C2415.88,1253.58,2422.69,1232.64,2428.43,1194.98z M2329.43,1028.9
			c-0.13,12.3-1.16,33.39-5.31,64.4c-5.61,41.88-15.69,73.47-20.01,85.72c-0.18-0.35-0.4-0.66-0.67-0.93
			c-2.97-2.94-7.41-4.43-13.21-4.43c-39.52,0-133.18,68.12-154.34,83.9c9.97-16.6,41.55-72.26,73.19-160.02
			c7.99-22.17,15.54-45.27,22.44-68.65h97.91V1028.9z M2359.85,951.64c0-0.93-0.54-1.73-1.32-2.12c0.78-0.39,1.32-1.19,1.32-2.12
			s-0.54-1.73-1.32-2.12c0.78-0.39,1.32-1.19,1.32-2.12s-0.54-1.73-1.32-2.12c0.78-0.39,1.32-1.19,1.32-2.12s-0.54-1.73-1.32-2.12
			c0.78-0.39,1.32-1.19,1.32-2.12s-0.54-1.73-1.32-2.12c0.78-0.39,1.32-1.19,1.32-2.12s-0.54-1.73-1.32-2.12
			c0.78-0.39,1.32-1.19,1.32-2.12s-0.54-1.73-1.32-2.12c0.78-0.39,1.32-1.19,1.32-2.12s-0.54-1.73-1.32-2.12
			c0.78-0.39,1.32-1.19,1.32-2.12s-0.54-1.73-1.32-2.12c0.78-0.39,1.32-1.19,1.32-2.12s-0.54-1.73-1.32-2.12
			c0.78-0.39,1.32-1.19,1.32-2.12s-0.54-1.73-1.32-2.12c0.78-0.39,1.32-1.19,1.32-2.12s-0.54-1.73-1.32-2.12
			c0.78-0.39,1.32-1.19,1.32-2.12s-0.54-1.73-1.32-2.12c0.78-0.39,1.32-1.19,1.32-2.12s-0.54-1.73-1.32-2.12
			c0.78-0.39,1.32-1.19,1.32-2.12s-0.54-1.73-1.32-2.12c0.78-0.39,1.32-1.19,1.32-2.12s-0.54-1.73-1.32-2.12
			c0.78-0.39,1.32-1.19,1.32-2.12s-0.54-1.73-1.32-2.12c0.78-0.39,1.32-1.19,1.32-2.12s-0.54-1.73-1.32-2.12
			c0.78-0.39,1.32-1.19,1.32-2.12s-0.54-1.73-1.32-2.12c0.78-0.39,1.32-1.19,1.32-2.12s-0.54-1.73-1.32-2.12
			c0.78-0.39,1.32-1.19,1.32-2.12s-0.54-1.73-1.32-2.12c0.78-0.39,1.32-1.19,1.32-2.12s-0.54-1.73-1.32-2.12
			c0.78-0.39,1.32-1.19,1.32-2.12s-0.54-1.73-1.32-2.12c0.78-0.39,1.32-1.19,1.32-2.12s-0.54-1.73-1.32-2.12
			c0.78-0.39,1.32-1.19,1.32-2.12s-0.54-1.73-1.32-2.12c0.78-0.39,1.32-1.19,1.32-2.12s-0.54-1.73-1.32-2.12
			c0.78-0.39,1.32-1.19,1.32-2.12s-0.54-1.73-1.32-2.12c0.78-0.39,1.32-1.19,1.32-2.12s-0.54-1.73-1.32-2.12
			c0.78-0.39,1.32-1.19,1.32-2.12s-0.54-1.73-1.32-2.12c0.78-0.39,1.32-1.19,1.32-2.12s-0.54-1.73-1.32-2.12
			c0.78-0.39,1.32-1.19,1.32-2.12s-0.54-1.73-1.32-2.12c0.78-0.39,1.32-1.19,1.32-2.12s-0.54-1.73-1.32-2.12
			c0.78-0.39,1.32-1.19,1.32-2.12s-0.54-1.73-1.32-2.12c0.78-0.39,1.32-1.19,1.32-2.12s-0.54-1.73-1.32-2.12
			c0.78-0.39,1.32-1.19,1.32-2.12s-0.54-1.73-1.32-2.12c0.78-0.39,1.32-1.19,1.32-2.12s-0.54-1.73-1.32-2.12
			c0.78-0.39,1.32-1.19,1.32-2.12s-0.54-1.73-1.32-2.12c0.78-0.39,1.32-1.19,1.32-2.12s-0.54-1.73-1.32-2.12
			c0.78-0.39,1.32-1.19,1.32-2.12s-0.54-1.73-1.32-2.12c0.78-0.39,1.32-1.19,1.32-2.12s-0.54-1.73-1.32-2.12
			c0.78-0.39,1.32-1.19,1.32-2.12s-0.54-1.73-1.32-2.12c0.78-0.39,1.32-1.19,1.32-2.12s-0.54-1.73-1.32-2.12
			c0.78-0.39,1.32-1.19,1.32-2.12s-0.54-1.73-1.32-2.12c0.78-0.39,1.32-1.19,1.32-2.12s-0.54-1.73-1.32-2.12
			c0.78-0.39,1.32-1.19,1.32-2.12s-0.54-1.73-1.32-2.12c0.78-0.39,1.32-1.19,1.32-2.12s-0.54-1.73-1.32-2.12
			c0.78-0.39,1.32-1.19,1.32-2.12s-0.54-1.73-1.32-2.12c0.78-0.39,1.32-1.19,1.32-2.12s-0.54-1.73-1.32-2.12
			c0.78-0.39,1.32-1.19,1.32-2.12s-0.54-1.73-1.32-2.12c0.78-0.39,1.32-1.19,1.32-2.12s-0.54-1.73-1.32-2.12
			c0.78-0.39,1.32-1.19,1.32-2.12s-0.54-1.73-1.32-2.12c0.78-0.39,1.32-1.19,1.32-2.12s-0.54-1.73-1.32-2.12
			c0.78-0.39,1.32-1.19,1.32-2.12s-0.54-1.73-1.32-2.12c0.78-0.39,1.32-1.19,1.32-2.12s-0.54-1.73-1.32-2.12
			c0.78-0.39,1.32-1.19,1.32-2.12s-0.54-1.73-1.32-2.12c0.78-0.39,1.32-1.19,1.32-2.12s-0.54-1.73-1.32-2.12
			c0.78-0.39,1.32-1.19,1.32-2.12s-0.54-1.73-1.32-2.12c0.78-0.39,1.32-1.19,1.32-2.12s-0.54-1.73-1.32-2.12
			c0.78-0.39,1.32-1.19,1.32-2.12s-0.54-1.73-1.32-2.12c0.78-0.39,1.32-1.19,1.32-2.12s-0.54-1.73-1.32-2.12
			c0.78-0.39,1.32-1.19,1.32-2.12s-0.54-1.73-1.32-2.12c0.78-0.39,1.32-1.19,1.32-2.12s-0.54-1.73-1.32-2.12
			c0.78-0.39,1.32-1.19,1.32-2.12s-0.54-1.73-1.32-2.12c0.78-0.39,1.32-1.19,1.32-2.12s-0.54-1.73-1.32-2.12
			c0.78-0.39,1.32-1.19,1.32-2.12s-0.54-1.73-1.32-2.12c0.78-0.39,1.32-1.19,1.32-2.12s-0.54-1.73-1.32-2.12
			c0.78-0.39,1.32-1.19,1.32-2.12s-0.54-1.73-1.32-2.12c0.78-0.39,1.32-1.19,1.32-2.12s-0.54-1.73-1.32-2.12
			c0.78-0.39,1.32-1.19,1.32-2.12s-0.54-1.73-1.32-2.12c0.78-0.39,1.32-1.19,1.32-2.12s-0.54-1.73-1.32-2.12
			c0.78-0.39,1.32-1.19,1.32-2.12s-0.54-1.73-1.32-2.12c0.78-0.39,1.32-1.19,1.32-2.12s-0.54-1.73-1.32-2.12
			c0.78-0.39,1.32-1.19,1.32-2.12s-0.54-1.73-1.32-2.12c0.78-0.39,1.32-1.19,1.32-2.12s-0.54-1.73-1.32-2.12
			c0.78-0.39,1.32-1.19,1.32-2.12s-0.54-1.73-1.32-2.12c0.78-0.39,1.32-1.19,1.32-2.12s-0.54-1.73-1.32-2.12
			c0.78-0.39,1.32-1.19,1.32-2.12s-0.54-1.73-1.32-2.12c0.78-0.39,1.32-1.19,1.32-2.12s-0.54-1.73-1.32-2.12
			c0.78-0.39,1.32-1.19,1.32-2.12s-0.54-1.73-1.32-2.12c0.78-0.39,1.32-1.19,1.32-2.12s-0.54-1.73-1.32-2.12
			c0.78-0.39,1.32-1.19,1.32-2.12s-0.54-1.73-1.32-2.12c0.78-0.39,1.32-1.19,1.32-2.12s-0.54-1.73-1.32-2.12
			c0.78-0.39,1.32-1.19,1.32-2.12s-0.54-1.73-1.32-2.12c0.78-0.39,1.32-1.19,1.32-2.12s-0.54-1.73-1.32-2.12
			c0.78-0.39,1.32-1.19,1.32-2.12s-0.54-1.73-1.32-2.12c0.78-0.39,1.32-1.19,1.32-2.12s-0.54-1.73-1.32-2.12
			c0.78-0.39,1.32-1.19,1.32-2.12s-0.54-1.73-1.32-2.12c0.78-0.39,1.32-1.19,1.32-2.12s-0.54-1.73-1.32-2.12
			c0.78-0.39,1.32-1.19,1.32-2.12s-0.54-1.73-1.32-2.12c0.78-0.39,1.32-1.19,1.32-2.12s-0.54-1.73-1.32-2.12
			c0.78-0.39,1.32-1.19,1.32-2.12s-0.54-1.73-1.32-2.12c0.78-0.39,1.32-1.19,1.32-2.12s-0.54-1.73-1.32-2.12
			c0.78-0.39,1.32-1.19,1.32-2.12s-0.54-1.73-1.32-2.12c0.78-0.39,1.32-1.19,1.32-2.12s-0.54-1.73-1.32-2.12
			c0.78-0.39,1.32-1.19,1.32-2.12s-0.54-1.73-1.32-2.12c0.78-0.39,1.32-1.19,1.32-2.12s-0.54-1.73-1.32-2.12
			c0.78-0.39,1.32-1.19,1.32-2.12s-0.54-1.73-1.32-2.12c0.78-0.39,1.32-1.19,1.32-2.12s-0.54-1.73-1.32-2.12
			c0.78-0.39,1.32-1.19,1.32-2.12s-0.54-1.73-1.32-2.12c0.78-0.39,1.32-1.19,1.32-2.12s-0.54-1.73-1.32-2.12
			c0.78-0.39,1.32-1.19,1.32-2.12s-0.54-1.73-1.32-2.12c0.78-0.39,1.32-1.19,1.32-2.12s-0.54-1.73-1.32-2.12
			c0.78-0.39,1.32-1.19,1.32-2.12s-0.54-1.73-1.32-2.12c0.78-0.39,1.32-1.19,1.32-2.12s-0.54-1.73-1.32-2.12
			c0.78-0.39,1.32-1.19,1.32-2.12s-0.54-1.73-1.32-2.12c0.78-0.39,1.32-1.19,1.32-2.12s-0.54-1.73-1.32-2.12
			c0.78-0.39,1.32-1.19,1.32-2.12s-0.54-1.73-1.32-2.12c0.78-0.39,1.32-1.19,1.32-2.12s-0.54-1.73-1.32-2.12
			c0.78-0.39,1.32-1.19,1.32-2.12s-0.54-1.73-1.32-2.12c0.78-0.39,1.32-1.19,1.32-2.12s-0.54-1.73-1.32-2.12
			c0.78-0.39,1.32-1.19,1.32-2.12s-0.54-1.73-1.32-2.12c0.78-0.39,1.32-1.19,1.32-2.12s-0.54-1.73-1.32-2.12
			c0.78-0.39,1.32-1.19,1.32-2.12s-0.54-1.73-1.32-2.12c0.78-0.39,1.32-1.19,1.32-2.12s-0.54-1.73-1.32-2.12
			c0.78-0.39,1.32-1.19,1.32-2.12s-0.54-1.73-1.32-2.12c0.78-0.39,1.32-1.19,1.32-2.12s-0.54-1.73-1.32-2.12
			c0.78-0.39,1.32-1.19,1.32-2.12s-0.54-1.73-1.32-2.12c0.78-0.39,1.32-1.19,1.32-2.12s-0.54-1.73-1.32-2.12
			c0.78-0.39,1.32-1.19,1.32-2.12s-0.54-1.73-1.32-2.12c0.78-0.39,1.32-1.19,1.32-2.12s-0.54-1.73-1.32-2.12
			c0.78-0.39,1.32-1.19,1.32-2.12s-0.54-1.73-1.32-2.12c0.78-0.39,1.32-1.19,1.32-2.12s-0.54-1.73-1.32-2.12
			c0.78-0.39,1.32-1.19,1.32-2.12s-0.54-1.73-1.32-2.12c0.78-0.39,1.32-1.19,1.32-2.12s-0.54-1.73-1.32-2.12
			c0.78-0.39,1.32-1.19,1.32-2.12s-0.54-1.73-1.32-2.12c0.78-0.39,1.32-1.19,1.32-2.12s-0.54-1.73-1.32-2.12
			c0.78-0.39,1.32-1.19,1.32-2.12s-0.54-1.73-1.32-2.12c0.78-0.39,1.32-1.19,1.32-2.12s-0.54-1.73-1.32-2.12
			c0.78-0.39,1.32-1.19,1.32-2.12s-0.54-1.73-1.32-2.12c0.78-0.39,1.32-1.19,1.32-2.12s-0.54-1.73-1.32-2.12
			c0.78-0.39,1.32-1.19,1.32-2.12s-0.54-1.73-1.32-2.12c0.78-0.39,1.32-1.19,1.32-2.12s-0.54-1.73-1.32-2.12
			c0.78-0.39,1.32-1.19,1.32-2.12s-0.54-1.73-1.32-2.12c0.78-0.39,1.32-1.19,1.32-2.12s-0.54-1.73-1.32-2.12
			c0.78-0.39,1.32-1.19,1.32-2.12s-0.54-1.73-1.32-2.12c0.78-0.39,1.32-1.19,1.32-2.12s-0.54-1.73-1.32-2.12
			c0.78-0.39,1.32-1.19,1.32-2.12s-0.54-1.73-1.32-2.12c0.78-0.39,1.32-1.19,1.32-2.12s-0.54-1.73-1.32-2.12
			c0.78-0.39,1.32-1.19,1.32-2.12s-0.54-1.73-1.32-2.12c0.78-0.39,1.32-1.19,1.32-2.12s-0.54-1.73-1.32-2.12
			c0.78-0.39,1.32-1.19,1.32-2.12s-0.54-1.73-1.32-2.12c0.78-0.39,1.32-1.19,1.32-2.12s-0.54-1.73-1.32-2.12
			c0.78-0.39,1.32-1.19,1.32-2.12s-0.54-1.73-1.32-2.12c0.78-0.39,1.32-1.19,1.32-2.12s-0.54-1.73-1.32-2.12
			c0.78-0.39,1.32-1.19,1.32-2.12s-0.54-1.73-1.32-2.12c0.78-0.39,1.32-1.19,1.32-2.12s-0.54-1.73-1.32-2.12
			c0.78-0.39,1.32-1.19,1.32-2.12s-0.54-1.73-1.32-2.12c0.78-0.39,1.32-1.19,1.32-2.12s-0.54-1.73-1.32-2.12
			c0.78-0.39,1.32-1.19,1.32-2.12s-0.54-1.73-1.32-2.12c0.78-0.39,1.32-1.19,1.32-2.12s-0.54-1.73-1.32-2.12
			c0.78-0.39,1.32-1.19,1.32-2.12s-0.54-1.73-1.32-2.12c0.78-0.39,1.32-1.19,1.32-2.12s-0.54-1.73-1.32-2.12
			c0.78-0.39,1.32-1.19,1.32-2.12s-0.54-1.73-1.32-2.12c0.78-0.39,1.32-1.19,1.32-2.12s-0.54-1.73-1.32-2.12
			c0.78-0.39,1.32-1.19,1.32-2.12s-0.54-1.73-1.32-2.12c0.78-0.39,1.32-1.19,1.32-2.12s-0.54-1.73-1.32-2.12
			c0.78-0.39,1.32-1.19,1.32-2.12s-0.54-1.73-1.32-2.12c0.78-0.39,1.32-1.19,1.32-2.12s-0.54-1.73-1.32-2.12
			c0.78-0.39,1.32-1.19,1.32-2.12s-0.54-1.73-1.32-2.12c0.78-0.39,1.32-1.19,1.32-2.12s-0.54-1.73-1.32-2.12
			c0.78-0.39,1.32-1.19,1.32-2.12s-0.54-1.73-1.32-2.12c0.78-0.39,1.32-1.19,1.32-2.12s-0.54-1.73-1.32-2.12
			c0.78-0.39,1.32-1.19,1.32-2.12s-0.54-1.73-1.32-2.12c0.78-0.39,1.32-1.19,1.32-2.12s-0.54-1.73-1.32-2.12
			c0.78-0.39,1.32-1.19,1.32-2.12c0-0.43-0.12-0.85-0.33-1.21h59.04v702.2h-58.98c0.18-0.34,0.28-0.71,0.28-1.1
			c0-0.93-0.54-1.73-1.32-2.12C2359.31,953.37,2359.85,952.57,2359.85,951.64z M2355.43,254.79c-0.22,0.36-0.33,0.78-0.33,1.21
			c0,0.93,0.54,1.73,1.32,2.12c-0.78,0.39-1.32,1.19-1.32,2.12s0.54,1.73,1.32,2.12c-0.78,0.39-1.32,1.19-1.32,2.12
			s0.54,1.73,1.32,2.12c-0.78,0.39-1.32,1.19-1.32,2.12s0.54,1.73,1.32,2.12c-0.78,0.39-1.32,1.19-1.32,2.12s0.54,1.73,1.32,2.12
			c-0.78,0.39-1.32,1.19-1.32,2.12s0.54,1.73,1.32,2.12c-0.78,0.39-1.32,1.19-1.32,2.12s0.54,1.73,1.32,2.12
			c-0.78,0.39-1.32,1.19-1.32,2.12s0.54,1.73,1.32,2.12c-0.78,0.39-1.32,1.19-1.32,2.12s0.54,1.73,1.32,2.12
			c-0.78,0.39-1.32,1.19-1.32,2.12s0.54,1.73,1.32,2.12c-0.78,0.39-1.32,1.19-1.32,2.12s0.54,1.73,1.32,2.12
			c-0.78,0.39-1.32,1.19-1.32,2.12s0.54,1.73,1.32,2.12c-0.78,0.39-1.32,1.19-1.32,2.12s0.54,1.73,1.32,2.12
			c-0.78,0.39-1.32,1.19-1.32,2.12s0.54,1.73,1.32,2.12c-0.78,0.39-1.32,1.19-1.32,2.12s0.54,1.73,1.32,2.12
			c-0.78,0.39-1.32,1.19-1.32,2.12s0.54,1.73,1.32,2.12c-0.78,0.39-1.32,1.19-1.32,2.12s0.54,1.73,1.32,2.12
			c-0.78,0.39-1.32,1.19-1.32,2.12s0.54,1.73,1.32,2.12c-0.78,0.39-1.32,1.19-1.32,2.12s0.54,1.73,1.32,2.12
			c-0.78,0.39-1.32,1.19-1.32,2.12s0.54,1.73,1.32,2.12c-0.78,0.39-1.32,1.19-1.32,2.12s0.54,1.73,1.32,2.12
			c-0.78,0.39-1.32,1.19-1.32,2.12s0.54,1.73,1.32,2.12c-0.78,0.39-1.32,1.19-1.32,2.12s0.54,1.73,1.32,2.12
			c-0.78,0.39-1.32,1.19-1.32,2.12s0.54,1.73,1.32,2.12c-0.78,0.39-1.32,1.19-1.32,2.12s0.54,1.73,1.32,2.12
			c-0.78,0.39-1.32,1.19-1.32,2.12s0.54,1.73,1.32,2.12c-0.78,0.39-1.32,1.19-1.32,2.12s0.54,1.73,1.32,2.12
			c-0.78,0.39-1.32,1.19-1.32,2.12s0.54,1.73,1.32,2.12c-0.78,0.39-1.32,1.19-1.32,2.12s0.54,1.73,1.32,2.12
			c-0.78,0.39-1.32,1.19-1.32,2.12s0.54,1.73,1.32,2.12c-0.78,0.39-1.32,1.19-1.32,2.12s0.54,1.73,1.32,2.12
			c-0.78,0.39-1.32,1.19-1.32,2.12s0.54,1.73,1.32,2.12c-0.78,0.39-1.32,1.19-1.32,2.12s0.54,1.73,1.32,2.12
			c-0.78,0.39-1.32,1.19-1.32,2.12s0.54,1.73,1.32,2.12c-0.78,0.39-1.32,1.19-1.32,2.12s0.54,1.73,1.32,2.12
			c-0.78,0.39-1.32,1.19-1.32,2.12s0.54,1.73,1.32,2.12c-0.78,0.39-1.32,1.19-1.32,2.12s0.54,1.73,1.32,2.12
			c-0.78,0.39-1.32,1.19-1.32,2.12s0.54,1.73,1.32,2.12c-0.78,0.39-1.32,1.19-1.32,2.12s0.54,1.73,1.32,2.12
			c-0.78,0.39-1.32,1.19-1.32,2.12s0.54,1.73,1.32,2.12c-0.78,0.39-1.32,1.19-1.32,2.12s0.54,1.73,1.32,2.12
			c-0.78,0.39-1.32,1.19-1.32,2.12s0.54,1.73,1.32,2.12c-0.78,0.39-1.32,1.19-1.32,2.12s0.54,1.73,1.32,2.12
			c-0.78,0.39-1.32,1.19-1.32,2.12s0.54,1.73,1.32,2.12c-0.78,0.39-1.32,1.19-1.32,2.12s0.54,1.73,1.32,2.12
			c-0.78,0.39-1.32,1.19-1.32,2.12s0.54,1.73,1.32,2.12c-0.78,0.39-1.32,1.19-1.32,2.12s0.54,1.73,1.32,2.12
			c-0.78,0.39-1.32,1.19-1.32,2.12s0.54,1.73,1.32,2.12c-0.78,0.39-1.32,1.19-1.32,2.12s0.54,1.73,1.32,2.12
			c-0.78,0.39-1.32,1.19-1.32,2.12s0.54,1.73,1.32,2.12c-0.78,0.39-1.32,1.19-1.32,2.12s0.54,1.73,1.32,2.12
			c-0.78,0.39-1.32,1.19-1.32,2.12s0.54,1.73,1.32,2.12c-0.78,0.39-1.32,1.19-1.32,2.12s0.54,1.73,1.32,2.12
			c-0.78,0.39-1.32,1.19-1.32,2.12s0.54,1.73,1.32,2.12c-0.78,0.39-1.32,1.19-1.32,2.12s0.54,1.73,1.32,2.12
			c-0.78,0.39-1.32,1.19-1.32,2.12s0.54,1.73,1.32,2.12c-0.78,0.39-1.32,1.19-1.32,2.12s0.54,1.73,1.32,2.12
			c-0.78,0.39-1.32,1.19-1.32,2.12s0.54,1.73,1.32,2.12c-0.78,0.39-1.32,1.19-1.32,2.12s0.54,1.73,1.32,2.12
			c-0.78,0.39-1.32,1.19-1.32,2.12s0.54,1.73,1.32,2.12c-0.78,0.39-1.32,1.19-1.32,2.12s0.54,1.73,1.32,2.12
			c-0.78,0.39-1.32,1.19-1.32,2.12s0.54,1.73,1.32,2.12c-0.78,0.39-1.32,1.19-1.32,2.12s0.54,1.73,1.32,2.12
			c-0.78,0.39-1.32,1.19-1.32,2.12s0.54,1.73,1.32,2.12c-0.78,0.39-1.32,1.19-1.32,2.12s0.54,1.73,1.32,2.12
			c-0.78,0.39-1.32,1.19-1.32,2.12s0.54,1.73,1.32,2.12c-0.78,0.39-1.32,1.19-1.32,2.12s0.54,1.73,1.32,2.12
			c-0.78,0.39-1.32,1.19-1.32,2.12s0.54,1.73,1.32,2.12c-0.78,0.39-1.32,1.19-1.32,2.12s0.54,1.73,1.32,2.12
			c-0.78,0.39-1.32,1.19-1.32,2.12s0.54,1.73,1.32,2.12c-0.78,0.39-1.32,1.19-1.32,2.12s0.54,1.73,1.32,2.12
			c-0.78,0.39-1.32,1.19-1.32,2.12s0.54,1.73,1.32,2.12c-0.78,0.39-1.32,1.19-1.32,2.12s0.54,1.73,1.32,2.12
			c-0.78,0.39-1.32,1.19-1.32,2.12s0.54,1.73,1.32,2.12c-0.78,0.39-1.32,1.19-1.32,2.12s0.54,1.73,1.32,2.12
			c-0.78,0.39-1.32,1.19-1.32,2.12s0.54,1.73,1.32,2.12c-0.78,0.39-1.32,1.19-1.32,2.12s0.54,1.73,1.32,2.12
			c-0.78,0.39-1.32,1.19-1.32,2.12s0.54,1.73,1.32,2.12c-0.78,0.39-1.32,1.19-1.32,2.12s0.54,1.73,1.32,2.12
			c-0.78,0.39-1.32,1.19-1.32,2.12s0.54,1.73,1.32,2.12c-0.78,0.39-1.32,1.19-1.32,2.12s0.54,1.73,1.32,2.12
			c-0.78,0.39-1.32,1.19-1.32,2.12s0.54,1.73,1.32,2.12c-0.78,0.39-1.32,1.19-1.32,2.12s0.54,1.73,1.32,2.12
			c-0.78,0.39-1.32,1.19-1.32,2.12s0.54,1.73,1.32,2.12c-0.78,0.39-1.32,1.19-1.32,2.12s0.54,1.73,1.32,2.12
			c-0.78,0.39-1.32,1.19-1.32,2.12s0.54,1.73,1.32,2.12c-0.78,0.39-1.32,1.19-1.32,2.12s0.54,1.73,1.32,2.12
			c-0.78,0.39-1.32,1.19-1.32,2.12s0.54,1.73,1.32,2.12c-0.78,0.39-1.32,1.19-1.32,2.12s0.54,1.73,1.32,2.12
			c-0.78,0.39-1.32,1.19-1.32,2.12s0.54,1.73,1.32,2.12c-0.78,0.39-1.32,1.19-1.32,2.12s0.54,1.73,1.32,2.12
			c-0.78,0.39-1.32,1.19-1.32,2.12s0.54,1.73,1.32,2.12c-0.78,0.39-1.32,1.19-1.32,2.12s0.54,1.73,1.32,2.12
			c-0.78,0.39-1.32,1.19-1.32,2.12s0.54,1.73,1.32,2.12c-0.78,0.39-1.32,1.19-1.32,2.12s0.54,1.73,1.32,2.12
			c-0.78,0.39-1.32,1.19-1.32,2.12s0.54,1.73,1.32,2.12c-0.78,0.39-1.32,1.19-1.32,2.12s0.54,1.73,1.32,2.12
			c-0.78,0.39-1.32,1.19-1.32,2.12s0.54,1.73,1.32,2.12c-0.78,0.39-1.32,1.19-1.32,2.12s0.54,1.73,1.32,2.12
			c-0.78,0.39-1.32,1.19-1.32,2.12s0.54,1.73,1.32,2.12c-0.78,0.39-1.32,1.19-1.32,2.12s0.54,1.73,1.32,2.12
			c-0.78,0.39-1.32,1.19-1.32,2.12s0.54,1.73,1.32,2.12c-0.78,0.39-1.32,1.19-1.32,2.12s0.54,1.73,1.32,2.12
			c-0.78,0.39-1.32,1.19-1.32,2.12s0.54,1.73,1.32,2.12c-0.78,0.39-1.32,1.19-1.32,2.12s0.54,1.73,1.32,2.12
			c-0.78,0.39-1.32,1.19-1.32,2.12s0.54,1.73,1.32,2.12c-0.78,0.39-1.32,1.19-1.32,2.12s0.54,1.73,1.32,2.12
			c-0.78,0.39-1.32,1.19-1.32,2.12s0.54,1.73,1.32,2.12c-0.78,0.39-1.32,1.19-1.32,2.12s0.54,1.73,1.32,2.12
			c-0.78,0.39-1.32,1.19-1.32,2.12s0.54,1.73,1.32,2.12c-0.78,0.39-1.32,1.19-1.32,2.12s0.54,1.73,1.32,2.12
			c-0.78,0.39-1.32,1.19-1.32,2.12s0.54,1.73,1.32,2.12c-0.78,0.39-1.32,1.19-1.32,2.12s0.54,1.73,1.32,2.12
			c-0.78,0.39-1.32,1.19-1.32,2.12s0.54,1.73,1.32,2.12c-0.78,0.39-1.32,1.19-1.32,2.12s0.54,1.73,1.32,2.12
			c-0.78,0.39-1.32,1.19-1.32,2.12s0.54,1.73,1.32,2.12c-0.78,0.39-1.32,1.19-1.32,2.12s0.54,1.73,1.32,2.12
			c-0.78,0.39-1.32,1.19-1.32,2.12s0.54,1.73,1.32,2.12c-0.78,0.39-1.32,1.19-1.32,2.12s0.54,1.73,1.32,2.12
			c-0.78,0.39-1.32,1.19-1.32,2.12s0.54,1.73,1.32,2.12c-0.78,0.39-1.32,1.19-1.32,2.12s0.54,1.73,1.32,2.12
			c-0.78,0.39-1.32,1.19-1.32,2.12s0.54,1.73,1.32,2.12c-0.78,0.39-1.32,1.19-1.32,2.12s0.54,1.73,1.32,2.12
			c-0.78,0.39-1.32,1.19-1.32,2.12s0.54,1.73,1.32,2.12c-0.78,0.39-1.32,1.19-1.32,2.12s0.54,1.73,1.32,2.12
			c-0.78,0.39-1.32,1.19-1.32,2.12s0.54,1.73,1.32,2.12c-0.78,0.39-1.32,1.19-1.32,2.12s0.54,1.73,1.32,2.12
			c-0.78,0.39-1.32,1.19-1.32,2.12s0.54,1.73,1.32,2.12c-0.78,0.39-1.32,1.19-1.32,2.12s0.54,1.73,1.32,2.12
			c-0.78,0.39-1.32,1.19-1.32,2.12s0.54,1.73,1.32,2.12c-0.78,0.39-1.32,1.19-1.32,2.12s0.54,1.73,1.32,2.12
			c-0.78,0.39-1.32,1.19-1.32,2.12s0.54,1.73,1.32,2.12c-0.78,0.39-1.32,1.19-1.32,2.12s0.54,1.73,1.32,2.12
			c-0.78,0.39-1.32,1.19-1.32,2.12s0.54,1.73,1.32,2.12c-0.78,0.39-1.32,1.19-1.32,2.12s0.54,1.73,1.32,2.12
			c-0.78,0.39-1.32,1.19-1.32,2.12s0.54,1.73,1.32,2.12c-0.78,0.39-1.32,1.19-1.32,2.12s0.54,1.73,1.32,2.12
			c-0.78,0.39-1.32,1.19-1.32,2.12s0.54,1.73,1.32,2.12c-0.78,0.39-1.32,1.19-1.32,2.12s0.54,1.73,1.32,2.12
			c-0.78,0.39-1.32,1.19-1.32,2.12s0.54,1.73,1.32,2.12c-0.78,0.39-1.32,1.19-1.32,2.12s0.54,1.73,1.32,2.12
			c-0.78,0.39-1.32,1.19-1.32,2.12s0.54,1.73,1.32,2.12c-0.78,0.39-1.32,1.19-1.32,2.12s0.54,1.73,1.32,2.12
			c-0.78,0.39-1.32,1.19-1.32,2.12s0.54,1.73,1.32,2.12c-0.78,0.39-1.32,1.19-1.32,2.12s0.54,1.73,1.32,2.12
			c-0.78,0.39-1.32,1.19-1.32,2.12s0.54,1.73,1.32,2.12c-0.78,0.39-1.32,1.19-1.32,2.12s0.54,1.73,1.32,2.12
			c-0.78,0.39-1.32,1.19-1.32,2.12s0.54,1.73,1.32,2.12c-0.78,0.39-1.32,1.19-1.32,2.12s0.54,1.73,1.32,2.12
			c-0.78,0.39-1.32,1.19-1.32,2.12s0.54,1.73,1.32,2.12c-0.78,0.39-1.32,1.19-1.32,2.12s0.54,1.73,1.32,2.12
			c-0.78,0.39-1.32,1.19-1.32,2.12s0.54,1.73,1.32,2.12c-0.78,0.39-1.32,1.19-1.32,2.12s0.54,1.73,1.32,2.12
			c-0.78,0.39-1.32,1.19-1.32,2.12s0.54,1.73,1.32,2.12c-0.78,0.39-1.32,1.19-1.32,2.12s0.54,1.73,1.32,2.12
			c-0.78,0.39-1.32,1.19-1.32,2.12s0.54,1.73,1.32,2.12c-0.78,0.39-1.32,1.19-1.32,2.12s0.54,1.73,1.32,2.12
			c-0.78,0.39-1.32,1.19-1.32,2.12s0.54,1.73,1.32,2.12c-0.78,0.39-1.32,1.19-1.32,2.12s0.54,1.73,1.32,2.12
			c-0.78,0.39-1.32,1.19-1.32,2.12s0.54,1.73,1.32,2.12c-0.78,0.39-1.32,1.19-1.32,2.12s0.54,1.73,1.32,2.12
			c-0.78,0.39-1.32,1.19-1.32,2.12s0.54,1.73,1.32,2.12c-0.78,0.39-1.32,1.19-1.32,2.12s0.54,1.73,1.32,2.12
			c-0.78,0.39-1.32,1.19-1.32,2.12s0.54,1.73,1.32,2.12c-0.78,0.39-1.32,1.19-1.32,2.12s0.54,1.73,1.32,2.12
			c-0.78,0.39-1.32,1.19-1.32,2.12c0,0.39,0.1,0.76,0.28,1.1H2250.5c22.95-98.24,34.72-199.3,35-300.35
			c0.35-128.29-24.7-234.65-45.78-301.28l-0.28-0.89l-0.23-0.71c-15.01-49.94-29.04-81.34-38.24-98.97h154.46V254.79z M2355.5,958.8
			c-0.26,0.39-0.41,0.85-0.41,1.32c0,0.93,0.54,1.73,1.32,2.12c-0.78,0.39-1.32,1.19-1.32,2.12s0.54,1.73,1.32,2.12
			c-0.78,0.39-1.32,1.19-1.32,2.12s0.54,1.73,1.32,2.12c-0.78,0.39-1.32,1.19-1.32,2.12s0.54,1.73,1.32,2.12
			c-0.78,0.39-1.32,1.19-1.32,2.12s0.54,1.73,1.32,2.12c-0.78,0.39-1.32,1.19-1.32,2.12s0.54,1.73,1.32,2.12
			c-0.78,0.39-1.32,1.19-1.32,2.12s0.54,1.73,1.32,2.12c-0.78,0.39-1.32,1.19-1.32,2.12c0,0.13,0.01,0.26,0.04,0.4h-112.85
			c2.7-10.34,5.32-20.9,7.79-31.41h105.43V958.8z M2352.64,1167.91v-72.66h9.68v72.66c0,2.67-2.17,4.84-4.84,4.84
			C2354.81,1172.75,2352.64,1170.58,2352.64,1167.91z M2359.85,1023.75c0-0.93-0.54-1.73-1.32-2.12c0.78-0.39,1.32-1.19,1.32-2.12
			s-0.54-1.73-1.32-2.12c0.78-0.39,1.32-1.19,1.32-2.12s-0.54-1.73-1.32-2.12c0.78-0.39,1.32-1.19,1.32-2.12s-0.54-1.73-1.32-2.12
			c0.78-0.39,1.32-1.19,1.32-2.12s-0.54-1.73-1.32-2.12c0.78-0.39,1.32-1.19,1.32-2.12s-0.54-1.73-1.32-2.12
			c0.78-0.39,1.32-1.19,1.32-2.12s-0.54-1.73-1.32-2.12c0.78-0.39,1.32-1.19,1.32-2.12c0-0.86-0.46-1.61-1.15-2.03h60.01v35.05
			h-59.05c-0.22-0.54-0.65-0.95-1.15-1.2C2359.3,1025.49,2359.85,1024.68,2359.85,1023.75z M2356.25,992.03
			c-0.69,0.42-1.15,1.17-1.15,2.03c0,0.93,0.54,1.73,1.32,2.12c-0.78,0.39-1.32,1.19-1.32,2.12s0.54,1.73,1.32,2.12
			c-0.78,0.39-1.32,1.19-1.32,2.12s0.54,1.73,1.32,2.12c-0.78,0.39-1.32,1.19-1.32,2.12s0.54,1.73,1.32,2.12
			c-0.78,0.39-1.32,1.19-1.32,2.12s0.54,1.73,1.32,2.12c-0.78,0.39-1.32,1.19-1.32,2.12s0.54,1.73,1.32,2.12
			c-0.78,0.39-1.32,1.19-1.32,2.12s0.54,1.73,1.32,2.12c-0.78,0.39-1.32,1.19-1.32,2.12c0,0.94,0.55,1.74,1.34,2.13
			c-0.51,0.25-0.93,0.66-1.15,1.2h-24.03c0.03-9.28-0.44-13.7-0.44-13.74l-0.03-0.26l-0.26,0.03l-1.3,0.15l-0.26,0.03l0.03,0.26
			c0,0.04,0.47,4.37,0.43,13.54h-97.38c3.39-11.55,6.67-23.34,9.74-35.05L2356.25,992.03L2356.25,992.03z M2418.71,990.21h-58.9
			c0.03-0.14,0.04-0.27,0.04-0.4c0-0.93-0.54-1.73-1.32-2.12c0.78-0.39,1.32-1.19,1.32-2.12s-0.54-1.73-1.32-2.12
			c0.78-0.39,1.32-1.19,1.32-2.12s-0.54-1.73-1.32-2.12c0.78-0.39,1.32-1.19,1.32-2.12s-0.54-1.73-1.32-2.12
			c0.78-0.39,1.32-1.19,1.32-2.12s-0.54-1.73-1.32-2.12c0.78-0.39,1.32-1.19,1.32-2.12s-0.54-1.73-1.32-2.12
			c0.78-0.39,1.32-1.19,1.32-2.12s-0.54-1.73-1.32-2.12c0.78-0.39,1.32-1.19,1.32-2.12c0-0.47-0.14-0.93-0.41-1.32h59.26
			L2418.71,990.21L2418.71,990.21z M1498.41,990.21V958.8h749.8c-2.47,10.51-5.1,21.07-7.8,31.41L1498.41,990.21L1498.41,990.21z"/>
		<path d="M1267.9,970.5c4,0,7.25-4.49,7.25-10.02s-3.25-10.02-7.25-10.02s-7.25,4.49-7.25,10.02S1263.9,970.5,1267.9,970.5z
			 M1262.47,960.48c0-4.52,2.43-8.2,5.43-8.2c2.99,0,5.43,3.68,5.43,8.2s-2.43,8.2-5.43,8.2
			C1264.91,968.68,1262.47,965,1262.47,960.48z"/>
		<polygon points="1281.13,1362.94 1280.87,1362.94 1280.87,1363.2 1280.87,1370.7 1280.87,1370.95 1281.13,1370.95 
			1306.62,1370.95 1306.88,1370.95 1306.88,1370.7 1306.88,1363.2 1306.88,1362.94 1306.62,1362.94 		"/>
		<path d="M1360.89,1362.29h-1.31h-11.44h-1.31h-11.44h-1.31h-12.75h-0.26v0.26v8.8v0.26h0.26h12.75h1.31h11.44h1.31h11.44h1.31
			h12.75h0.26v-0.26v-8.8v-0.26h-0.26H1360.89z M1322.91,1369.79v-5.68h10.93v5.68H1322.91z M1335.66,1369.79v-5.68h10.93v5.68
			H1335.66z M1348.4,1369.79v-5.68h10.93v5.68H1348.4z M1361.15,1369.79v-5.68h10.93v5.68H1361.15z"/>
		<path d="M1528.47,1362.29h-1.31h-11.44h-1.31h-11.44h-1.31h-12.75h-0.26v0.26v8.8v0.26h0.26h12.75h1.31h11.44h1.31h11.44h1.31
			h12.75h0.26v-0.26v-8.8v-0.26h-0.26H1528.47z M1490.48,1369.79v-5.68h10.93v5.68H1490.48z M1503.23,1369.79v-5.68h10.93v5.68
			H1503.23z M1515.98,1369.79v-5.68h10.93v5.68H1515.98z M1528.73,1369.79v-5.68h10.93v5.68H1528.73z"/>
		<path d="M1389.18,1362.29h-0.26v0.26v8.8v0.26h0.26h84.2h0.26v-0.26v-8.8v-0.26h-0.26H1389.18z M1390.74,1369.79v-5.68h81.08v5.68
			H1390.74z"/>
		<path d="M760.9,744.23l6.98,2.83c0.21,0.08,0.42,0.13,0.64,0.13c0.47,0,0.93-0.2,1.25-0.55l5.14-5.51
			c0.47-0.5,0.59-1.11,0.35-1.69c-0.29-0.69-1.04-1.14-1.92-1.16h-0.16c-3.49,0-5.16,2.03-5.58,2.65c-0.57-0.16-2.3-0.62-3.93-0.62
			c-1.17,0-2.05,0.24-2.61,0.71c-0.81,0.67-1.22,1.47-1.12,2.14C760,743.49,760.2,743.94,760.9,744.23z"/>
		<path d="M582.08,1062.92c-0.12-0.06-2.95-1.39-6.48-1.39c-2.58,0-4.88,0.71-6.82,2.1c-5.18,3.71-4.96,9.68-4.95,9.93
			c0.02,0.48,0.41,0.87,0.86,0.87c0.04,0,0.07,0,0.11-0.01c0.48-0.02,0.87-0.45,0.84-0.95c0-0.05-0.17-5.24,4.19-8.37
			c1.61-1.15,3.54-1.74,5.75-1.74c1.5,0,2.87,0.27,3.88,0.55c-1.55,0.91-3.79,2.39-4.67,3.78c-2.31,3.47-0.44,6.22-0.36,6.34
			c0.17,0.24,0.45,0.39,0.75,0.39c0.19,0,0.37-0.06,0.52-0.17c0.2-0.14,0.33-0.35,0.37-0.59s-0.01-0.48-0.15-0.68
			c-0.01-0.02-1.23-1.86,0.39-4.31c0.95-1.5,4.49-3.49,5.78-4.13l1.2-0.6l0.47-0.24l-0.48-0.23L582.08,1062.92z"/>
		<path d="M741.37,1047.95c0.12,0.05,0.25,0.08,0.38,0.08c0.36,0,0.68-0.21,0.83-0.53c0.21-0.46,0.01-1-0.45-1.21
			c-8.47-3.87-13.95-12.39-13.95-21.7c0-5.26,1.68-10.25,4.85-14.42c0.3-0.4,0.23-0.97-0.17-1.27c-0.16-0.12-0.35-0.18-0.55-0.18
			c-0.29,0-0.55,0.13-0.73,0.36c-3.42,4.5-5.23,9.86-5.23,15.52C726.36,1034.61,732.25,1043.78,741.37,1047.95z"/>
		<path d="M670.05,1047.95c0.12,0.05,0.25,0.08,0.38,0.08c0.36,0,0.68-0.21,0.83-0.53c0.21-0.46,0.01-1-0.45-1.21
			c-8.47-3.87-13.95-12.39-13.95-21.7c0-5.26,1.68-10.25,4.85-14.42c0.3-0.4,0.23-0.97-0.17-1.27c-0.16-0.12-0.35-0.18-0.55-0.18
			c-0.29,0-0.55,0.13-0.73,0.36c-3.42,4.5-5.23,9.86-5.23,15.52C655.04,1034.61,660.93,1043.78,670.05,1047.95z"/>
		<path d="M712.48,1063.24c0.07,0.02,0.14,0.03,0.21,0.03c0.42,0,0.79-0.28,0.89-0.69c0.7-2.82,1.87-5.34,3.31-7.07
			c1.09-1.33,2.23-2.06,3.21-2.06c0.14,0,0.29,0.02,0.42,0.05c1.04,0.26,1.87,1.52,2.27,3.47c0.46,2.21,0.32,4.97-0.38,7.8
			c-0.06,0.24-0.02,0.48,0.1,0.69c0.13,0.21,0.32,0.36,0.56,0.41c0.07,0.02,0.15,0.03,0.22,0.03c0.42,0,0.78-0.28,0.88-0.69
			c0.76-3.08,0.9-6.14,0.39-8.6c-0.56-2.7-1.84-4.42-3.62-4.86c-0.28-0.07-0.58-0.11-0.87-0.11c-1.54,0-3.12,0.94-4.59,2.72
			c-1.6,1.94-2.9,4.71-3.67,7.79c-0.06,0.24-0.02,0.48,0.1,0.69C712.05,1063.04,712.25,1063.18,712.48,1063.24z"/>
		<path d="M673.14,1091.03c0.5,0,0.91-0.41,0.91-0.91c0-3.81,2.23-7.19,5.7-8.72c0.43,2.51,4.38,21.55,25.33,31.64
			c6.32,3.04,12.57,4.59,18.57,4.59c13.5,0,21.28-7.8,21.36-7.88c0.17-0.18,0.26-0.41,0.26-0.65s-0.1-0.47-0.28-0.64
			c-0.17-0.17-0.4-0.26-0.63-0.26c-0.25,0-0.48,0.1-0.65,0.28c-0.07,0.07-7.25,7.34-20.03,7.34c-5.74,0-11.73-1.48-17.81-4.41
			c-21.44-10.33-24.33-30.31-24.35-30.51c0-0.02-0.01-0.04-0.01-0.06c0.7-0.16,1.4-0.24,2.08-0.24c1.91,0,3.76,0.56,5.33,1.63
			c0.15,0.1,0.33,0.16,0.51,0.16c0.3,0,0.58-0.15,0.75-0.4c0.14-0.2,0.19-0.44,0.14-0.68c-0.05-0.24-0.18-0.45-0.38-0.58
			c-1.88-1.27-4.07-1.94-6.35-1.94c-6.26,0-11.35,5.09-11.35,11.35C672.23,1090.62,672.64,1091.03,673.14,1091.03z"/>
		<path d="M687.95,1047c0.32,0,0.64-0.01,0.97-0.03c-2.64,0.98-5.39,1.48-8.2,1.48c-0.59,0-1.18-0.02-1.75-0.06
			c-0.02,0-0.06,0-0.09,0c-0.47,0-0.85,0.36-0.89,0.84c-0.04,0.5,0.34,0.94,0.84,0.98c0.61,0.05,1.24,0.07,1.89,0.07
			c14.15,0,25.67-11.52,25.67-25.67s-11.52-25.67-25.67-25.67c-0.5,0-0.91,0.41-0.91,0.91s0.41,0.91,0.91,0.91
			c13.15,0,23.85,10.7,23.85,23.85c0,2.81-0.5,5.56-1.48,8.2c0.02-0.32,0.03-0.65,0.03-0.96c0-8.37-6.81-15.17-15.17-15.17
			c-1.59,0-3.17,0.25-4.7,0.75l-0.36,0.12l0.24,0.29c0.86,1.03,1.31,2.25,1.31,3.54c0,3.06-2.49,5.55-5.55,5.55
			c-1.58,0-3.04-0.66-4.11-1.85l-0.25-0.28l-0.17,0.34c-1.05,2.12-1.58,4.38-1.58,6.72C672.78,1040.19,679.58,1047,687.95,1047z"/>
		<path d="M627.95,539.58c0-10.29-1.63-20.48-4.83-30.28c10.76-3.4,20.42-10.26,27.22-19.35c7.08-9.47,10.83-20.74,10.83-32.6
			c0-30.03-24.43-54.47-54.47-54.47c-12.38,0-24.5,4.27-34.12,12.02c-9.41,7.58-16.1,18.18-18.87,29.87
			c-7.66-1.89-15.54-2.85-23.42-2.85c-2.08,0-4.27,0.09-6.87,0.27V353.2v-0.26h-0.26H343.9h-0.26v0.26v179.27v0.26h0.26h88.99
			c-0.18,2.59-0.27,4.78-0.27,6.87c0,53.85,43.81,97.67,97.67,97.67C584.14,637.25,627.95,593.44,627.95,539.58z M521.6,354.76
			v87.57c-22.7,2.01-44.12,12.04-60.33,28.24c-16.21,16.21-26.23,37.62-28.24,60.33h-87.57V354.76H521.6z M521.6,444.15v86.75
			h-86.75C439.02,484.74,475.44,448.32,521.6,444.15z M434.71,532.72h88.45h0.26v-0.26v-88.45c2.59-0.19,4.78-0.27,6.87-0.27
			c7.74,0,15.49,0.94,23.02,2.81c-0.71,3.54-1.08,7.18-1.08,10.81c0,30.03,24.43,54.47,54.47,54.47c4.95,0,9.88-0.68,14.68-2.02
			c3.16,9.64,4.76,19.65,4.76,29.77c0,52.85-43,95.85-95.85,95.85s-95.85-43-95.85-95.85C434.44,537.5,434.53,535.31,434.71,532.72z
			"/>
		<path d="M2172.7,1376.49h-0.24l-0.02,0.24l-10.03,143.13v0.07l-1.49,19.43l-0.02,0.28h0.28h106.63h0.24l0.02-0.24l1.43-18.56l0,0
			l0.02-0.24l0.04-0.51l0.06-0.79l0.02-0.28h-0.01l9.92-141.55l0.05-0.7l0.02-0.27h-0.28L2172.7,1376.49L2172.7,1376.49z
			 M2162.86,1537.82l1.31-16.98h103.5l-1.31,16.98H2162.86z M2277.66,1378.31l-9.86,140.71h-103.5l9.86-140.71H2277.66z"/>
		<polygon points="2187.85,1528.83 2187.59,1528.83 2187.59,1529.09 2187.59,1530.39 2187.59,1530.65 2187.85,1530.65 
			2261.77,1530.65 2262.03,1530.65 2262.03,1530.39 2262.03,1529.09 2262.03,1528.83 2261.77,1528.83 		"/>
		<polygon points="2175.91,1529.64 2178.03,1527.18 2178.2,1526.98 2178,1526.82 2177.01,1525.97 2176.82,1525.8 2176.65,1525.99 
			2174.53,1528.46 2172.06,1526.33 2171.87,1526.17 2171.7,1526.36 2170.85,1527.35 2170.68,1527.54 2170.88,1527.71 
			2173.34,1529.83 2171.22,1532.3 2171.05,1532.49 2171.25,1532.66 2172.24,1533.51 2172.43,1533.68 2172.6,1533.49 
			2174.72,1531.02 2177.18,1533.14 2177.38,1533.31 2177.55,1533.12 2178.4,1532.13 2178.56,1531.93 2178.37,1531.77 		"/>
		<path d="M2220.12,1459.19l16.03,30.07l0.56,1.06l-0.08-1.19l-2.63-39.17l23.93-7.43l0.81-0.25l-0.81-0.24l-26.03-7.71l-2.12-32.08
			l-0.07-1.04l-0.42,0.95l-12.98,29.24l-25.78-4.09l-0.77-0.12l0.54,0.56l20.03,20.43l-21.38,35.75l-0.75,1.25l1.13-0.92
			L2220.12,1459.19z M2212.51,1448.06l0.1-0.17l-0.14-0.14l-17.56-17.91l22.29,3.54l0.2,0.03l0.08-0.18l10.9-24.55l1.78,26.85
			l0.01,0.18l0.17,0.05l22.13,6.56l-20.19,6.27l-0.19,0.06l0.01,0.2l2.23,33.13l-13.5-25.32l-0.15-0.28l-0.24,0.2l-25.38,20.65
			L2212.51,1448.06z"/>
		<path d="M2247.82,1408.27l-1.23,12.56l-0.17,1.74l0.66-1.62l4.35-10.61l8.85,6.3l0.84,0.6l-0.46-0.92l-5.07-10.11l12.17-2
			l2.13-0.35l-2.15-0.16l-12.84-0.96l3.28-9.17l0.38-1.07l-0.8,0.8l-7.35,7.27l-8.75-9.85l-1.01-1.14l0.58,1.41l5.38,13.02
			l-8.98,4.05l-1.17,0.53l1.28-0.04L2247.82,1408.27z M2247.9,1404.72l0.23-0.1l-0.1-0.23l-3.66-8.85l5.81,6.54l0.18,0.2l0.19-0.19
			l5.18-5.13l-2.33,6.52l-0.11,0.32l0.34,0.03l6.42,0.48l-5.86,0.96l-0.34,0.06l0.16,0.31l3.98,7.94l-6.8-4.84l-0.26-0.19l-0.12,0.3
			l-2.44,5.95l0.73-7.42l0.03-0.29l-0.29,0.01l-6.56,0.19L2247.9,1404.72z"/>
		<path d="M2187.21,1501.94l-0.91,9.27l-0.17,1.74l0.66-1.62l3.22-7.85l6.35,4.52l0.84,0.6l-0.46-0.92l-3.62-7.22l9.1-1.49
			l2.13-0.35l-2.15-0.16l-9.59-0.72l2.37-6.61l0.38-1.07l-0.8,0.8l-5.32,5.27l-6.4-7.2l-1.01-1.14l0.58,1.41l3.93,9.5l-6.58,2.97
			l-1.17,0.53l1.28-0.04L2187.21,1501.94z M2187.61,1499.39l0.23-0.1l-0.1-0.23l-2.21-5.34l3.46,3.89l0.18,0.2l0.19-0.19l3.16-3.13
			l-1.42,3.97l-0.11,0.32l0.34,0.03l3.17,0.24l-2.79,0.46l-0.34,0.06l0.16,0.31l2.54,5.06l-4.3-3.06l-0.26-0.19l-0.12,0.3
			l-1.31,3.18l0.4-4.13l0.03-0.29l-0.29,0.01l-3.84,0.11L2187.61,1499.39z"/>
	</g>
</g>
</svg>
