  <svg className="w-12 h-auto" viewBox="0 0 500 500" style="background-color: transparent;">
    <path d="M 32.1,247.1 Q 25.0,240.0 25.7,250.0L 29.3,300.0 Q 30.0,310.0 38.5,315.3L 61.5,329.7 Q 70.0,335.0 80.0,335.0L 110.0,335.0 Q 120.0,335.0 112.9,327.9 Z" fill="red" stroke="none" />
    <path d="M 172.3,323.1 Q 165.0,330.0 175.0,330.2L 425.0,334.8 Q 435.0,335.0 427.5,328.4L 327.5,241.6 Q 320.0,235.0 310.1,236.5L 264.9,243.5 Q 255.0,245.0 247.7,251.9 Z" fill="teal" stroke="none" />
    <path d="M 134.7,140.0 Q 135.0,130.0 128.4,137.5L 71.6,202.5 Q 65.0,210.0 66.1,219.9L 68.9,245.1 Q 70.0,255.0 76.8,262.3L 123.2,312.7 Q 130.0,320.0 130.3,310.0 Z" fill="green" stroke="none" />
    <path d="M 337.9,132.1 Q 345.0,125.0 335.0,126.0L 200.0,139.0 Q 190.0,140.0 183.9,147.9L 161.1,177.1 Q 155.0,185.0 154.6,195.0L 150.4,310.0 Q 150.0,320.0 157.1,312.9 Z" fill="orange" stroke="none" />
  </svg>
